<svg width="20" height="20" viewBox="0 0 20 20" fill="none"
  xmlns="http://www.w3.org/2000/svg">
  <g clip-path="url(#clip0)">
    <path d="M2.82952 6.03241L2.82952 15.9119C2.83618 16.011 2.85759 16.1085 2.89303 16.2013L2.90715 16.3C2.96412 16.4157 3.0405 16.5207 3.13296 16.6105C3.18494 16.6758 3.24412 16.735 3.30938 16.787L3.40112 16.8787C3.47251 16.8986 3.54588 16.9104 3.61988 16.914L3.78925 16.9563L13.6688 16.9563C13.8005 16.9569 13.9311 16.9313 14.0529 16.8812C14.1747 16.831 14.2854 16.7572 14.3785 16.664C14.4717 16.5709 14.5455 16.4602 14.5957 16.3384C14.6458 16.2166 14.6714 16.086 14.6708 15.9543C14.6714 15.8225 14.6458 15.692 14.5957 15.5702C14.5455 15.4483 14.4717 15.3377 14.3785 15.2445C14.2854 15.1513 14.1747 15.0775 14.0529 15.0274C13.9311 14.9772 13.8005 14.9517 13.6688 14.9522L6.22384 14.931L16.8867 4.26821C17.0738 4.08105 17.179 3.82721 17.179 3.56252C17.179 3.29784 17.0738 3.044 16.8867 2.85685C16.6995 2.66969 16.4457 2.56454 16.181 2.56454C15.9163 2.56454 15.6625 2.66969 15.4753 2.85685L4.84071 13.4914L4.86188 6.00418C4.86242 5.87243 4.83687 5.74189 4.7867 5.62007C4.73653 5.49825 4.66274 5.38756 4.56958 5.29441C4.47643 5.20125 4.36574 5.12746 4.24392 5.07729C4.1221 5.02712 3.99156 5.00157 3.85981 5.00211C3.7233 4.99762 3.58731 5.02119 3.46028 5.07138C3.33325 5.12156 3.21787 5.19729 3.12128 5.29387C3.0247 5.39046 2.94897 5.50584 2.89878 5.63287C2.8486 5.75991 2.82502 5.89589 2.82952 6.03241V6.03241Z" />
  </g>
  <defs>
    <clipPath id="clip0">
      <rect width="20" height="20" />
    </clipPath>
  </defs>
</svg>
