<svg width="20" height="20" viewBox="0 0 20 20" fill="none"
  xmlns="http://www.w3.org/2000/svg">
  <g clip-path="url(#clip0)">
    <path d="M6.30352 16.8993L16.183 16.8993C16.2821 16.8927 16.3796 16.8713 16.4724 16.8358L16.5712 16.8217C16.6868 16.7647 16.7918 16.6884 16.8817 16.5959C16.9469 16.5439 17.0061 16.4847 17.0581 16.4195L17.1498 16.3277C17.1697 16.2564 17.1815 16.183 17.1851 16.109L17.2274 15.9396L17.2274 6.0601C17.228 5.92836 17.2024 5.79781 17.1523 5.67599C17.1021 5.55417 17.0283 5.44349 16.9352 5.35033C16.842 5.25717 16.7313 5.18338 16.6095 5.13321C16.4877 5.08305 16.3571 5.0575 16.2254 5.05804C16.0936 5.0575 15.9631 5.08305 15.8413 5.13321C15.7195 5.18338 15.6088 5.25717 15.5156 5.35033C15.4225 5.44349 15.3487 5.55417 15.2985 5.67599C15.2483 5.79781 15.2228 5.92836 15.2233 6.0601L15.2021 13.505L4.53932 2.8422C4.35217 2.65504 4.09832 2.5499 3.83364 2.5499C3.56896 2.5499 3.31512 2.65504 3.12796 2.8422C2.94081 3.02936 2.83566 3.2832 2.83566 3.54788C2.83566 3.81256 2.94081 4.0664 3.12796 4.25356L13.7626 14.8882L6.2753 14.867C6.14355 14.8664 6.013 14.892 5.89118 14.9422C5.76936 14.9923 5.65868 15.0661 5.56552 15.1593C5.47237 15.2524 5.39857 15.3631 5.34841 15.4849C5.29824 15.6068 5.27269 15.7373 5.27323 15.8691C5.26873 16.0056 5.29231 16.1416 5.34249 16.2686C5.39268 16.3956 5.46841 16.511 5.56499 16.6076C5.66157 16.7042 5.77695 16.7799 5.90399 16.8301C6.03102 16.8803 6.16701 16.9038 6.30352 16.8993V16.8993Z" />
  </g>
  <defs>
    <clipPath id="clip0">
      <rect width="20" height="20" />
    </clipPath>
  </defs>
</svg>
