<svg width="20" height="20" viewBox="0 0 20 20" fill="currentColor" xmlns="http://www.w3.org/2000/svg">
<path d="M17.6841 7.27237L10.6982 0.286497C10.6235 0.221156 10.5394 0.167338 10.4487 0.12682L10.3689 0.0669406C10.2468 0.0254512 10.1185 0.00519822 9.98964 0.00706176C9.90674 -0.00233357 9.82305 -0.00233357 9.74015 0.00706176H9.61041C9.5459 0.0435053 9.48565 0.0870195 9.43077 0.1368L9.28108 0.226618L2.2952 7.21249C2.20166 7.30527 2.12742 7.41565 2.07675 7.53726C2.02609 7.65887 2 7.78931 2 7.92106C2 8.0528 2.02609 8.18325 2.07675 8.30486C2.12742 8.42647 2.20166 8.53685 2.2952 8.62963C2.38798 8.72317 2.49835 8.79741 2.61997 8.84808C2.74158 8.89874 2.87202 8.92483 3.00377 8.92483C3.13551 8.92483 3.26596 8.89874 3.38757 8.84808C3.50918 8.79741 3.61956 8.72317 3.71234 8.62963L8.99166 3.38024V18.4598C8.99166 18.7244 9.09681 18.9783 9.28396 19.1654C9.47112 19.3526 9.72496 19.4577 9.98964 19.4577C10.2543 19.4577 10.5082 19.3526 10.6953 19.1654C10.8825 18.9783 10.9876 18.7244 10.9876 18.4598V3.42016L16.267 8.72943C16.3597 8.82296 16.4701 8.89721 16.5917 8.94787C16.7133 8.99854 16.8438 9.02463 16.9755 9.02463C17.1073 9.02463 17.2377 8.99854 17.3593 8.94787C17.4809 8.89721 17.5913 8.82296 17.6841 8.72943C17.7838 8.63607 17.8633 8.52325 17.9176 8.39794C17.972 8.27262 18 8.13749 18 8.0009C18 7.86431 17.972 7.72917 17.9176 7.60386C17.8633 7.47855 17.7838 7.36572 17.6841 7.27237V7.27237Z" />
</svg>
