<svg width="20" height="20" viewBox="0 0 20 20" fill="currentColor" xmlns="http://www.w3.org/2000/svg">
<g clip-path="url(#clip0)">
<path d="M13.6964 2.55839L3.81693 2.55839C3.71786 2.56505 3.62035 2.58645 3.5276 2.6219L3.4288 2.63601C3.31316 2.69298 3.20814 2.76936 3.1183 2.86183C3.05304 2.91381 2.99386 2.97299 2.94188 3.03825L2.85015 3.12999C2.8303 3.20137 2.81847 3.27475 2.81486 3.34875L2.77252 3.51811L2.77252 13.3976C2.77198 13.5294 2.79753 13.6599 2.8477 13.7817C2.89787 13.9036 2.97166 14.0142 3.06481 14.1074C3.15797 14.2006 3.26865 14.2744 3.39047 14.3245C3.51229 14.3747 3.64284 14.4002 3.77459 14.3997C3.90633 14.4002 4.03688 14.3747 4.1587 14.3245C4.28052 14.2744 4.3912 14.2006 4.48436 14.1074C4.57752 14.0142 4.65131 13.9036 4.70148 13.7817C4.75164 13.6599 4.77719 13.5294 4.77665 13.3976L4.79782 5.95271L15.4606 16.6155C15.6478 16.8027 15.9016 16.9078 16.1663 16.9078C16.431 16.9078 16.6848 16.8027 16.872 16.6155C17.0592 16.4284 17.1643 16.1745 17.1643 15.9099C17.1643 15.6452 17.0592 15.3913 16.872 15.2042L6.23741 4.56957L13.7247 4.59074C13.8564 4.59128 13.987 4.56573 14.1088 4.51557C14.2306 4.4654 14.3413 4.39161 14.4344 4.29845C14.5276 4.20529 14.6014 4.09461 14.6516 3.97279C14.7017 3.85097 14.7273 3.72042 14.7267 3.58868C14.7312 3.45217 14.7077 3.31618 14.6575 3.18915C14.6073 3.06211 14.5316 2.94673 14.435 2.85015C14.3384 2.75357 14.223 2.67784 14.096 2.62765C13.9689 2.57747 13.833 2.55389 13.6964 2.55839V2.55839Z" />
</g>
<defs>
<clipPath id="clip0">
<rect width="20" height="20" />
</clipPath>
</defs>
</svg>
