<svg width="20" height="20" viewBox="0 0 20 20" fill="currentColor" xmlns="http://www.w3.org/2000/svg">
<g clip-path="url(#clip0)">
<path d="M7.27236 2.31591L0.286481 9.30179C0.221141 9.37655 0.167322 9.46064 0.126804 9.55128L0.066925 9.63112C0.0254356 9.75318 0.0051826 9.88145 0.00704615 10.0104C-0.00234918 10.0933 -0.00234917 10.177 0.00704616 10.2599L0.00704616 10.3896C0.0434897 10.4541 0.0870039 10.5143 0.136784 10.5692L0.226602 10.7189L7.21248 17.7048C7.30525 17.7983 7.41563 17.8726 7.53725 17.9232C7.65886 17.9739 7.7893 18 7.92104 18C8.05279 18 8.18323 17.9739 8.30485 17.9232C8.42646 17.8726 8.53684 17.7983 8.62961 17.7048C8.72315 17.612 8.7974 17.5016 8.84806 17.38C8.89873 17.2584 8.92481 17.128 8.92481 16.9962C8.92481 16.8645 8.89873 16.734 8.84806 16.6124C8.7974 16.4908 8.72315 16.3804 8.62961 16.2877L3.38023 11.0083L18.4597 11.0083C18.7244 11.0083 18.9783 10.9032 19.1654 10.716C19.3526 10.5289 19.4577 10.275 19.4577 10.0104C19.4577 9.74567 19.3526 9.49183 19.1654 9.30468C18.9783 9.11752 18.7244 9.01237 18.4597 9.01237L3.42015 9.01237L8.72941 3.73305C8.82295 3.64027 8.89719 3.52989 8.94786 3.40828C8.99853 3.28667 9.02461 3.15623 9.02461 3.02448C9.02461 2.89274 8.99853 2.76229 8.94786 2.64068C8.89719 2.51907 8.82295 2.40869 8.72941 2.31591C8.63606 2.2162 8.52323 2.13672 8.39792 2.08238C8.27261 2.02804 8.13747 2 8.00088 2C7.8643 2 7.72916 2.02804 7.60385 2.08238C7.47853 2.13672 7.36571 2.2162 7.27236 2.31591V2.31591Z" />
</g>
<defs>
<clipPath id="clip0">
<rect width="20" height="20" />
</clipPath>
</defs>
</svg>
