<svg width="20" height="20" viewBox="0 0 20 20" fill="currentColor" xmlns="http://www.w3.org/2000/svg">
<g clip-path="url(#clip0)">
<path d="M17.1705 13.4253L17.1705 3.54581C17.1638 3.44674 17.1424 3.34923 17.107 3.25648L17.0929 3.15769C17.0359 3.04204 16.9595 2.93702 16.867 2.84719C16.8151 2.78192 16.7559 2.72274 16.6906 2.67077L16.5989 2.57903C16.5275 2.55918 16.4541 2.54735 16.3801 2.54374L16.2108 2.5014L6.33124 2.5014C6.19949 2.50086 6.06894 2.52641 5.94712 2.57658C5.8253 2.62675 5.71462 2.70054 5.62146 2.7937C5.52831 2.88685 5.45452 2.99754 5.40435 3.11936C5.35418 3.24118 5.32863 3.37172 5.32917 3.50347C5.32863 3.63521 5.35418 3.76576 5.40435 3.88758C5.45451 4.0094 5.52831 4.12008 5.62146 4.21324C5.71462 4.3064 5.8253 4.38019 5.94712 4.43036C6.06894 4.48052 6.19949 4.50607 6.33124 4.50553L13.7762 4.5267L3.11334 15.1895C2.92618 15.3767 2.82103 15.6305 2.82103 15.8952C2.82103 16.1599 2.92618 16.4137 3.11334 16.6009C3.30049 16.788 3.55433 16.8932 3.81902 16.8932C4.0837 16.8932 4.33754 16.788 4.5247 16.6009L15.1593 5.96629L15.1381 13.4536C15.1376 13.5853 15.1631 13.7158 15.2133 13.8377C15.2635 13.9595 15.3373 14.0702 15.4304 14.1633C15.5236 14.2565 15.6343 14.3303 15.7561 14.3804C15.8779 14.4306 16.0084 14.4562 16.1402 14.4556C16.2767 14.4601 16.4127 14.4365 16.5397 14.3864C16.6668 14.3362 16.7821 14.2604 16.8787 14.1639C16.9753 14.0673 17.051 13.9519 17.1012 13.8249C17.1514 13.6978 17.175 13.5618 17.1705 13.4253V13.4253Z" />
</g>
<defs>
<clipPath id="clip0">
<rect width="20" height="20" />
</clipPath>
</defs>
</svg>
