<svg width="20" height="20" viewBox="0 0 20 20" fill="none"
  xmlns="http://www.w3.org/2000/svg">
  <path d="M2.28183 12.7118L9.28289 19.7129C9.35781 19.7784 9.44208 19.8323 9.53292 19.8729L9.61294 19.9329C9.73526 19.9745 9.86381 19.9948 9.99299 19.9929C10.0761 20.0024 10.16 20.0024 10.243 19.9929L10.3731 19.9929C10.4377 19.9564 10.4981 19.9128 10.5531 19.8629L10.7031 19.7729L17.7042 12.7718C17.7979 12.6789 17.8723 12.5683 17.9231 12.4464C17.9739 12.3245 18 12.1938 18 12.0617C18 11.9297 17.9739 11.799 17.9231 11.6771C17.8723 11.5552 17.7979 11.4446 17.7042 11.3516C17.6112 11.2579 17.5006 11.1835 17.3787 11.1327C17.2568 11.0819 17.1261 11.0558 16.9941 11.0558C16.862 11.0558 16.7313 11.0819 16.6094 11.1327C16.4875 11.1835 16.3769 11.2579 16.2839 11.3516L10.9931 16.6124L10.9931 1.50015C10.9931 1.23489 10.8878 0.9805 10.7002 0.792935C10.5126 0.60537 10.2583 0.499998 9.993 0.499998C9.72774 0.499998 9.47335 0.60537 9.28578 0.792935C9.09822 0.9805 8.99285 1.23489 8.99285 1.50015L8.99284 16.5724L3.70205 11.2516C3.60907 11.1579 3.49845 11.0835 3.37657 11.0327C3.2547 10.9819 3.12397 10.9558 2.99194 10.9558C2.85991 10.9558 2.72918 10.9819 2.6073 11.0327C2.48543 11.0835 2.37481 11.1579 2.28183 11.2516C2.18191 11.3452 2.10225 11.4582 2.04779 11.5838C1.99333 11.7094 1.96523 11.8448 1.96523 11.9817C1.96523 12.1186 1.99333 12.254 2.04779 12.3796C2.10225 12.5052 2.18191 12.6183 2.28183 12.7118V12.7118Z" />
</svg>
