<svg width="20" height="20" viewBox="0 0 20 20" fill="currentColor" xmlns="http://www.w3.org/2000/svg">
<path d="M10.3846 19C11.4 19 12.2308 18.1692 12.2308 17.1538H8.53846C8.53846 17.6435 8.73297 18.1131 9.07919 18.4593C9.42541 18.8055 9.89498 19 10.3846 19ZM15.9231 13.4615V8.84615C15.9231 6.01231 14.4092 3.64 11.7692 3.01231V2.38462C11.7692 1.61846 11.1508 1 10.3846 1C9.61846 1 9 1.61846 9 2.38462V3.01231C6.35077 3.64 4.84615 6.00308 4.84615 8.84615V13.4615L3 15.3077V16.2308H17.7692V15.3077L15.9231 13.4615Z" />
</svg>
