<svg width="20" height="20" viewBox="0 0 20 20" fill="currentColor" xmlns="http://www.w3.org/2000/svg">
<path d="M10.3846 19C11.4 19 12.2308 18.1692 12.2308 17.1538H8.53846C8.53846 18.1692 9.36923 19 10.3846 19ZM15.9231 13.4615V8.84615C15.9231 6.01231 14.4185 3.64 11.7692 3.01231V2.38462C11.7692 1.61846 11.1508 1 10.3846 1C9.61846 1 9 1.61846 9 2.38462V3.01231C6.36 3.64 4.84615 6.00308 4.84615 8.84615V13.4615L3 15.3077V16.2308H17.7692V15.3077L15.9231 13.4615ZM14.0769 14.3846H6.69231V8.84615C6.69231 6.55692 8.08615 4.69231 10.3846 4.69231C12.6831 4.69231 14.0769 6.55692 14.0769 8.84615V14.3846Z" />
</svg>
