<svg width="20" height="20" viewBox="0 0 20 20" fill="currentColor" xmlns="http://www.w3.org/2000/svg">
<path d="M10.9009 5.09928L18.6414 12.8848C18.8135 13.059 18.9304 13.2802 18.9771 13.5206C19.0239 13.761 18.9986 14.0099 18.9043 14.236C18.81 14.462 18.6511 14.6551 18.4473 14.7911C18.2436 14.927 18.0042 14.9997 17.7593 15L2.24225 15C1.997 15.0016 1.75691 14.9296 1.55309 14.7932C1.34928 14.6568 1.19114 14.4623 1.09917 14.2349C1.03116 14.0852 0.997334 13.9223 1.00016 13.7579C0.996344 13.422 1.12581 13.0984 1.36019 12.8578L9.10073 5.09928C9.21536 4.97491 9.35452 4.87565 9.50944 4.80776C9.66435 4.73987 9.83165 4.70482 10.0008 4.70482C10.1699 4.70482 10.3372 4.73987 10.4921 4.80776C10.6471 4.87565 10.7862 4.97491 10.9009 5.09928Z" />
</svg>
