<svg width="20" height="20" viewBox="0 0 20 20" fill="currentColor" xmlns="http://www.w3.org/2000/svg">
<path d="M4.09928 10.9009L11.8848 18.6414C12.059 18.8135 12.2802 18.9304 12.5206 18.9771C12.761 19.0239 13.0099 18.9986 13.236 18.9043C13.462 18.81 13.6551 18.6511 13.7911 18.4473C13.927 18.2436 13.9997 18.0042 14 17.7593L14 2.24225C14.0016 1.997 13.9296 1.75691 13.7932 1.55309C13.6568 1.34928 13.4623 1.19114 13.2349 1.09917C13.0852 1.03116 12.9223 0.997334 12.7579 1.00016C12.422 0.996344 12.0984 1.12581 11.8578 1.36019L4.09928 9.10073C3.97491 9.21536 3.87566 9.35452 3.80776 9.50944C3.73987 9.66435 3.70482 9.83165 3.70482 10.0008C3.70482 10.1699 3.73987 10.3372 3.80776 10.4921C3.87566 10.6471 3.97491 10.7862 4.09928 10.9009Z" />
</svg>
