<svg width="20" height="20" viewBox="0 0 20 20" fill="currentColor" xmlns="http://www.w3.org/2000/svg">
<path d="M1.00016 6.24095C0.997337 6.07672 1.03113 5.91393 1.09907 5.76439C1.19037 5.53869 1.34697 5.34538 1.54881 5.20921C1.75065 5.07305 1.98854 5.00024 2.23201 5.00011L17.7425 5.00011C17.9887 4.9968 18.2303 5.06681 18.4366 5.20124C18.6429 5.33566 18.8045 5.52842 18.9009 5.75498C18.9973 5.98154 19.0242 6.23166 18.978 6.47351C18.9318 6.71537 18.8147 6.93802 18.6416 7.11313L10.8909 14.8908C10.7764 15.0151 10.6374 15.1142 10.4826 15.1821C10.3278 15.2499 10.1607 15.2849 9.99175 15.2849C9.82278 15.2849 9.65564 15.2499 9.50088 15.1821C9.34613 15.1142 9.2071 15.0151 9.09259 14.8908L1.35983 7.11313C1.1322 6.87949 1.00339 6.56712 1.00016 6.24095ZM16.3848 6.79842L3.59873 6.79842L9.99175 13.1914L16.3848 6.79842Z" />
</svg>
