<svg width="20" height="20" viewBox="0 0 20 20" fill="currentColor" xmlns="http://www.w3.org/2000/svg">
<path d="M14.9007 9.09914L7.11518 1.3586C6.94097 1.18645 6.71976 1.06964 6.47936 1.02286C6.23896 0.976081 5.99009 1.00142 5.76404 1.09568C5.538 1.18995 5.34487 1.34894 5.20893 1.55266C5.07299 1.75638 5.00031 1.99575 5.00003 2.24066V17.7577C4.99836 18.003 5.07041 18.2431 5.20682 18.4469C5.34323 18.6507 5.53772 18.8089 5.76508 18.9008C5.91477 18.9688 6.07772 19.0027 6.24212 18.9998C6.57796 19.0036 6.90162 18.8742 7.14218 18.6398L14.9007 10.8993C15.0251 10.7846 15.1243 10.6455 15.1922 10.4906C15.2601 10.3356 15.2952 10.1683 15.2952 9.9992C15.2952 9.83006 15.2601 9.66276 15.1922 9.50785C15.1243 9.35293 15.0251 9.21377 14.9007 9.09914Z" />
</svg>
