<svg width="20" height="20" viewBox="0 0 20 20" fill="currentColor" xmlns="http://www.w3.org/2000/svg">
<path d="M10.9009 14.9007L18.6414 7.11518C18.8135 6.94097 18.9304 6.71976 18.9771 6.47936C19.0239 6.23896 18.9986 5.99009 18.9043 5.76404C18.81 5.538 18.6511 5.34487 18.4473 5.20893C18.2436 5.07299 18.0042 5.00031 17.7593 5.00003L2.24225 5.00003C1.997 4.99836 1.75691 5.07041 1.55309 5.20682C1.34928 5.34323 1.19114 5.53772 1.09917 5.76508C1.03116 5.91477 0.997334 6.07772 1.00016 6.24211C0.996344 6.57796 1.12581 6.90162 1.36019 7.14218L9.10073 14.9007C9.21536 15.0251 9.35452 15.1243 9.50944 15.1922C9.66435 15.2601 9.83165 15.2952 10.0008 15.2952C10.1699 15.2952 10.3372 15.2601 10.4921 15.1922C10.6471 15.1243 10.7862 15.0251 10.9009 14.9007Z" />
</svg>
