<svg width="20" height="20" viewBox="0 0 20 20" fill="currentColor" xmlns="http://www.w3.org/2000/svg">
<path d="M18.9998 14.044C19.0027 14.2082 18.9689 14.371 18.9009 14.5205C18.8096 14.7462 18.653 14.9395 18.4512 15.0757C18.2494 15.2119 18.0115 15.2847 17.768 15.2848L2.25751 15.2848C2.01131 15.2881 1.7697 15.2181 1.56341 15.0837C1.35712 14.9493 1.19548 14.7565 1.09908 14.5299C1.00267 14.3034 0.975841 14.0533 1.02201 13.8114C1.06818 13.5695 1.18526 13.3469 1.35835 13.1718L9.1091 5.39407C9.22361 5.26983 9.36264 5.17067 9.51739 5.10284C9.67215 5.03502 9.83929 5 10.0083 5C10.1772 5 10.3444 5.03502 10.4991 5.10284C10.6539 5.17067 10.7929 5.26983 10.9074 5.39407L18.6402 13.1718C18.8678 13.4054 18.9966 13.7178 18.9998 14.044ZM3.61524 13.4865L16.4013 13.4865L10.0083 7.09348L3.61524 13.4865Z" />
</svg>
