<svg width="20" height="20" viewBox="0 0 20 20" fill="currentColor" xmlns="http://www.w3.org/2000/svg">
<path d="M12.7591 1.00016C12.9233 0.997337 13.0861 1.03113 13.2356 1.09907C13.4613 1.19037 13.6546 1.34697 13.7908 1.54881C13.9269 1.75065 13.9998 1.98854 13.9999 2.23201L13.9999 17.7425C14.0032 17.9887 13.9332 18.2303 13.7988 18.4366C13.6643 18.6429 13.4716 18.8045 13.245 18.9009C13.0185 18.9973 12.7683 19.0242 12.5265 18.978C12.2846 18.9318 12.062 18.8147 11.8869 18.6416L4.10915 10.8909C3.98491 10.7764 3.88575 10.6374 3.81792 10.4826C3.7501 10.3278 3.71508 10.1607 3.71508 9.99174C3.71508 9.82278 3.7501 9.65564 3.81792 9.50088C3.88575 9.34613 3.98491 9.2071 4.10915 9.09259L11.8869 1.35983C12.1205 1.1322 12.4329 1.00339 12.7591 1.00016ZM12.2016 16.3848L12.2016 3.59873L5.80856 9.99174L12.2016 16.3848Z" />
</svg>
