<svg width="20" height="20" viewBox="0 0 20 20" fill="currentColor" xmlns="http://www.w3.org/2000/svg">
<path d="M6.95604 18.9998C6.79181 19.0027 6.62902 18.9689 6.47948 18.9009C6.25378 18.8096 6.06047 18.653 5.92431 18.4512C5.78815 18.2494 5.71533 18.0115 5.7152 17.768L5.7152 2.25751C5.71189 2.01131 5.7819 1.7697 5.91633 1.56341C6.05075 1.35712 6.24351 1.19548 6.47007 1.09908C6.69663 1.00267 6.94675 0.975841 7.18861 1.02201C7.43046 1.06818 7.65311 1.18526 7.82822 1.35835L15.6059 9.1091C15.7302 9.22361 15.8293 9.36264 15.8972 9.51739C15.965 9.67215 16 9.83929 16 10.0083C16 10.1772 15.965 10.3444 15.8972 10.4991C15.8293 10.6539 15.7302 10.7929 15.6059 10.9074L7.82822 18.6402C7.59459 18.8678 7.28221 18.9966 6.95604 18.9998ZM7.51352 3.61524L7.51352 16.4013L13.9065 10.0083L7.51352 3.61524Z" />
</svg>
