<svg width="20" height="20" viewBox="0 0 20 20" fill="currentColor" xmlns="http://www.w3.org/2000/svg">
<path d="M10.7024 14.7285L18.7124 7.15369C18.8979 6.97849 19 6.74462 19 6.49525C19 6.24588 18.8979 6.01201 18.7124 5.83682L18.1227 5.27898C17.7384 4.916 17.1138 4.916 16.7301 5.27898L10.0037 11.6397L3.26988 5.27193C3.08447 5.09673 2.8373 5 2.57374 5C2.30989 5 2.06272 5.09673 1.87716 5.27193L1.28756 5.82976C1.10214 6.00509 0.999999 6.23882 0.999999 6.48819C0.999999 6.73757 1.10214 6.97144 1.28756 7.14663L9.30496 14.7285C9.49095 14.9041 9.73929 15.0006 10.0033 15C10.2683 15.0006 10.5165 14.9041 10.7024 14.7285Z" />
</svg>
