<svg width="20" height="20" viewBox="0 0 20 20" fill="currentColor" xmlns="http://www.w3.org/2000/svg">
<path d="M14.7285 9.29764L7.15369 1.28756C6.97849 1.10215 6.74462 1 6.49525 1C6.24588 1 6.01201 1.10215 5.83682 1.28756L5.27898 1.87731C4.916 2.2616 4.916 2.88618 5.27898 3.26988L11.6397 9.99627L5.27193 16.7301C5.09673 16.9155 5 17.1627 5 17.4263C5 17.6901 5.09673 17.9373 5.27193 18.1228L5.82976 18.7124C6.00509 18.8979 6.23883 19 6.4882 19C6.73757 19 6.97144 18.8979 7.14663 18.7124L14.7285 10.695C14.9041 10.509 15.0006 10.2607 15 9.99671C15.0006 9.73169 14.9041 9.48349 14.7285 9.29764Z" />
</svg>
