<svg width="20" height="20" viewBox="0 0 20 20" fill="currentColor" xmlns="http://www.w3.org/2000/svg">
<path d="M5.27151 10.7024L12.8463 18.7124C13.0215 18.8979 13.2554 19 13.5047 19C13.7541 19 13.988 18.8979 14.1632 18.7124L14.721 18.1227C15.084 17.7384 15.084 17.1138 14.721 16.7301L8.36027 10.0037L14.7281 3.26988C14.9033 3.08447 15 2.8373 15 2.57374C15 2.30989 14.9033 2.06272 14.7281 1.87716L14.1702 1.28756C13.9949 1.10214 13.7612 0.999999 13.5118 0.999999C13.2624 0.999999 13.0286 1.10214 12.8534 1.28756L5.27151 9.30496C5.0959 9.49096 4.99945 9.7393 5 10.0033C4.99945 10.2683 5.0959 10.5165 5.27151 10.7024Z" />
</svg>
