<svg width="20" height="20" viewBox="0 0 20 20" fill="currentColor" xmlns="http://www.w3.org/2000/svg">
<path d="M9.29764 5.27151L1.28756 12.8463C1.10215 13.0215 1 13.2554 1 13.5047C1 13.7541 1.10215 13.988 1.28756 14.1632L1.87731 14.721C2.2616 15.084 2.88618 15.084 3.26988 14.721L9.99627 8.36027L16.7301 14.7281C16.9155 14.9033 17.1627 15 17.4263 15C17.6901 15 17.9373 14.9033 18.1228 14.7281L18.7124 14.1702C18.8979 13.9949 19 13.7612 19 13.5118C19 13.2624 18.8979 13.0286 18.7124 12.8534L10.695 5.27151C10.509 5.0959 10.2607 4.99945 9.99671 5C9.73169 4.99945 9.48349 5.0959 9.29764 5.27151Z" />
</svg>
