<svg width="20" height="20" viewBox="0 0 20 20" fill="currentColor" xmlns="http://www.w3.org/2000/svg">
<path d="M9.1009 2.80028C8.6204 2.80024 8.14475 2.8964 7.70199 3.08308C7.25923 3.26977 6.85833 3.5432 6.52291 3.88726C6.18748 4.23132 5.92433 4.63905 5.74897 5.08641C5.5736 5.53377 5.48957 6.01171 5.50182 6.49206C5.50664 6.69523 5.44255 6.89404 5.31999 7.05615C5.19743 7.21825 5.02361 7.33411 4.82683 7.38485C4.19236 7.55105 3.64001 7.94237 3.2728 8.48581C2.9056 9.02925 2.74861 9.68772 2.83113 10.3384C2.91365 10.989 3.23003 11.5875 3.72127 12.022C4.21251 12.4566 4.84505 12.6977 5.50092 12.7002H6.40092C6.63961 12.7002 6.86853 12.795 7.03731 12.9638C7.20609 13.1326 7.30091 13.3615 7.30091 13.6002C7.30091 13.8389 7.20609 14.0678 7.03731 14.2366C6.86853 14.4054 6.63961 14.5002 6.40092 14.5002H5.50092C4.4644 14.5004 3.45959 14.1428 2.65627 13.4878C1.85295 12.8328 1.30038 11.9205 1.09194 10.9052C0.883494 9.88984 1.03196 8.83367 1.51224 7.91514C1.99252 6.9966 2.77516 6.27203 3.72793 5.86386C3.84143 4.72633 4.313 3.65417 5.07475 2.80176C5.83649 1.94935 6.84911 1.36068 7.96677 1.12051C9.08444 0.880349 10.2495 1.00108 11.2942 1.46533C12.3388 1.92957 13.2092 2.71338 13.78 3.70388C15.1927 3.75529 16.5289 4.35864 17.5017 5.38436C18.4745 6.41008 19.0063 7.77638 18.9828 9.18984C18.9594 10.6033 18.3826 11.9512 17.3763 12.9441C16.37 13.937 15.0145 14.4957 13.6009 14.5002C13.3622 14.5002 13.1333 14.4054 12.9645 14.2366C12.7957 14.0678 12.7009 13.8389 12.7009 13.6002C12.7009 13.3615 12.7957 13.1326 12.9645 12.9638C13.1333 12.795 13.3622 12.7002 13.6009 12.7002C14.0856 12.6995 14.5652 12.6009 15.011 12.4103C15.4567 12.2198 15.8593 11.9411 16.1947 11.5912C16.5301 11.2412 16.7914 10.8271 16.9629 10.3737C17.1343 9.92025 17.2125 9.43688 17.1926 8.95253C17.1727 8.46819 17.0552 7.99286 16.8471 7.55503C16.6391 7.11721 16.3447 6.72591 15.9817 6.40462C15.6188 6.08332 15.1946 5.83864 14.7348 5.68525C14.2749 5.53186 13.7889 5.47292 13.3057 5.51197C13.1182 5.52721 12.9306 5.48332 12.7693 5.38647C12.6081 5.28961 12.4812 5.14465 12.4066 4.97197C12.1276 4.32688 11.666 3.77752 11.0786 3.39163C10.4912 3.00573 9.80372 2.80017 9.1009 2.80028V2.80028ZM10.0009 8.20025C10.2396 8.20025 10.4685 8.29507 10.6373 8.46385C10.8061 8.63264 10.9009 8.86155 10.9009 9.10025V15.9276L11.1646 15.6639C11.3343 15.5 11.5617 15.4093 11.7977 15.4113C12.0336 15.4134 12.2594 15.508 12.4262 15.6749C12.5931 15.8417 12.6877 16.0675 12.6898 16.3034C12.6918 16.5394 12.6011 16.7668 12.4372 16.9365L10.6372 18.7365C10.4684 18.9052 10.2395 19 10.0009 19C9.76225 19 9.53338 18.9052 9.3646 18.7365L7.56461 16.9365C7.47865 16.8535 7.41009 16.7542 7.36292 16.6444C7.31575 16.5346 7.29093 16.4165 7.28989 16.297C7.28885 16.1775 7.31162 16.059 7.35687 15.9484C7.40213 15.8377 7.46895 15.7373 7.55346 15.6528C7.63796 15.5683 7.73845 15.5014 7.84905 15.4562C7.95966 15.4109 8.07817 15.3881 8.19767 15.3892C8.31717 15.3902 8.43527 15.4151 8.54507 15.4622C8.65487 15.5094 8.75418 15.578 8.83721 15.6639L9.1009 15.9276V9.10025C9.1009 8.86155 9.19572 8.63264 9.36451 8.46385C9.53329 8.29507 9.76221 8.20025 10.0009 8.20025V8.20025Z" />
</svg>
