<svg width="20" height="20" viewBox="0 0 20 20" fill="currentColor"
  xmlns="http://www.w3.org/2000/svg">
  <g clip-path="url(#clip0)">
    <path d="M19.697 9.26849L15.7957 5.36724C15.6997 5.27118 15.5856 5.19497 15.4601 5.14298C15.3346 5.09099 15.2001 5.06423 15.0642 5.06423C14.9284 5.06423 14.7939 5.09099 14.6683 5.14298C14.5428 5.19497 14.4288 5.27118 14.3327 5.36724C14.1387 5.56125 14.0297 5.82437 14.0297 6.09873C14.0297 6.37309 14.1387 6.63621 14.3327 6.83022L16.4681 8.96552H5.17242C4.89806 8.96552 4.63494 9.07451 4.44093 9.26851C4.24693 9.46252 4.13794 9.72564 4.13794 10C4.13794 10.2744 4.24693 10.5375 4.44093 10.7315C4.63494 10.9255 4.89806 11.0345 5.17242 11.0345H16.4681L14.3327 13.1698C14.1387 13.3638 14.0297 13.6269 14.0297 13.9013C14.0297 14.1757 14.1387 14.4388 14.3327 14.6328C14.5268 14.8268 14.7899 14.9358 15.0642 14.9358C15.3386 14.9358 15.6017 14.8268 15.7957 14.6328L19.697 10.7315C19.891 10.5375 20 10.2743 20 9.99998C20 9.72562 19.891 9.4625 19.697 9.26849Z" />
    <path d="M12.069 15.8621C11.7946 15.8621 11.5315 15.9711 11.3375 16.1651C11.1435 16.3591 11.0345 16.6222 11.0345 16.8966V17.931H2.06897V2.06897H11.0345V3.10345C11.0345 3.37781 11.1435 3.64094 11.3375 3.83494C11.5315 4.02894 11.7946 4.13793 12.069 4.13793C12.3433 4.13793 12.6065 4.02894 12.8005 3.83494C12.9945 3.64094 13.1034 3.37781 13.1034 3.10345V1.72414C13.1034 1.49772 13.0589 1.27352 12.9722 1.06434C12.8856 0.855157 12.7586 0.665089 12.5985 0.504988C12.4384 0.344887 12.2483 0.217888 12.0391 0.131242C11.8299 0.0445962 11.6057 0 11.3793 0H1.72414C1.26687 0 0.828327 0.18165 0.504988 0.504988C0.18165 0.828327 0 1.26687 0 1.72414V18.2759C0 18.7331 0.18165 19.1717 0.504988 19.495C0.828327 19.8184 1.26687 20 1.72414 20H11.3793C11.6057 20 11.8299 19.9554 12.0391 19.8688C12.2483 19.7821 12.4384 19.6551 12.5985 19.495C12.7586 19.3349 12.8856 19.1448 12.9722 18.9357C13.0589 18.7265 13.1034 18.5023 13.1034 18.2759V16.8966C13.1034 16.6222 12.9945 16.3591 12.8005 16.1651C12.6065 15.9711 12.3433 15.8621 12.069 15.8621Z" />
  </g>
  <defs>
    <clipPath id="clip0">
      <rect width="20" height="20" />
    </clipPath>
  </defs>
</svg>
