<svg width="20" height="20" viewBox="0 0 20 20" fill="currentColor"
  xmlns="http://www.w3.org/2000/svg">
  <path d="M16.5984 17.3877C16.5196 17.3879 16.4416 17.3724 16.3688 17.3422C16.296 17.312 16.2299 17.2677 16.1743 17.2119L2.97561 4.01316C2.86785 3.89974 2.80866 3.7487 2.81066 3.59226C2.81266 3.43582 2.8757 3.28635 2.98633 3.17572C3.09696 3.06509 3.24643 3.00205 3.40287 3.00005C3.55931 2.99805 3.71035 3.05724 3.82378 3.165L17.0225 16.3637C17.1063 16.4476 17.1634 16.5545 17.1866 16.6708C17.2097 16.7872 17.1978 16.9078 17.1524 17.0173C17.107 17.1269 17.0302 17.2206 16.9316 17.2865C16.833 17.3525 16.717 17.3877 16.5984 17.3877V17.3877Z" />
  <path d="M9.69933 12.4326L7.75739 10.4907C7.74626 10.4796 7.73196 10.4724 7.71649 10.4699C7.70101 10.4674 7.68515 10.4698 7.67113 10.4768C7.6571 10.4838 7.64562 10.495 7.63829 10.5089C7.63097 10.5227 7.62816 10.5385 7.63028 10.554C7.70868 11.0579 7.94524 11.5237 8.30577 11.8842C8.66631 12.2448 9.13215 12.4813 9.63596 12.5597C9.65148 12.5618 9.66729 12.559 9.68114 12.5517C9.69499 12.5444 9.7062 12.5329 9.71319 12.5189C9.72018 12.5048 9.72261 12.489 9.72012 12.4735C9.71763 12.458 9.71036 12.4437 9.69933 12.4326Z" />
  <path d="M10.2989 7.94424L12.2438 9.88843C12.2549 9.89962 12.2693 9.90703 12.2848 9.9096C12.3004 9.91218 12.3164 9.90979 12.3305 9.90277C12.3446 9.89576 12.3561 9.88447 12.3635 9.87052C12.3708 9.85657 12.3736 9.84066 12.3713 9.82506C12.2931 9.32056 12.0564 8.85405 11.6954 8.49306C11.3344 8.13206 10.8679 7.89533 10.3634 7.81713C10.3478 7.81472 10.3318 7.81731 10.3177 7.82453C10.3037 7.83174 10.2922 7.84322 10.2851 7.85731C10.2779 7.87141 10.2754 7.88741 10.2779 7.90302C10.2804 7.91863 10.2877 7.93306 10.2989 7.94424V7.94424Z" />
  <path d="M18.8108 10.8394C18.9349 10.6445 19.0005 10.4182 18.9999 10.1871C18.9992 9.9561 18.9323 9.73012 18.807 9.53599C17.8149 8.00164 16.5276 6.69827 15.0847 5.76648C13.4863 4.73458 11.7239 4.18901 9.98712 4.18901C9.07149 4.19027 8.1621 4.33956 7.29413 4.63109C7.26984 4.63917 7.24801 4.65334 7.23074 4.67223C7.21347 4.69113 7.20133 4.71414 7.19547 4.73906C7.1896 4.76398 7.19021 4.78999 7.19725 4.8146C7.20428 4.83922 7.21749 4.86163 7.23563 4.87969L9.00696 6.65102C9.02536 6.66946 9.04825 6.68278 9.07336 6.68968C9.09848 6.69659 9.12496 6.69683 9.1502 6.69039C9.75061 6.54407 10.3786 6.5548 10.9736 6.72153C11.5687 6.88825 12.1108 7.20537 12.5478 7.64235C12.9848 8.07933 13.3019 8.62145 13.4686 9.21652C13.6354 9.81159 13.6461 10.4396 13.4998 11.04C13.4934 11.0652 13.4937 11.0916 13.5006 11.1166C13.5075 11.1416 13.5208 11.1645 13.5391 11.1828L16.087 13.7326C16.1135 13.7591 16.149 13.7748 16.1865 13.7765C16.224 13.7781 16.2607 13.7657 16.2895 13.7416C17.2703 12.9056 18.1201 11.9273 18.8108 10.8394Z" />
  <path d="M9.99906 13.7881C9.45415 13.7881 8.91633 13.6644 8.42617 13.4263C7.93602 13.1883 7.50631 12.842 7.16944 12.4137C6.83258 11.9854 6.59735 11.4862 6.4815 10.9537C6.36565 10.4213 6.3722 9.86944 6.50065 9.33988C6.50702 9.3147 6.50674 9.28829 6.49984 9.26325C6.49294 9.2382 6.47965 9.21538 6.46128 9.19702L3.95503 6.68964C3.92845 6.66303 3.89285 6.64738 3.85528 6.64578C3.81771 6.64418 3.78091 6.65676 3.75217 6.68101C2.83763 7.46131 1.98984 8.41072 1.21479 9.52024C1.07912 9.71496 1.00441 9.94561 1.00013 10.1829C0.99586 10.4202 1.06222 10.6534 1.19079 10.8529C2.18107 12.4026 3.4552 13.7078 4.87594 14.6269C6.47666 15.6629 8.19624 16.1878 9.98706 16.1878C10.9119 16.1854 11.8308 16.0393 12.7108 15.7548C12.7353 15.7469 12.7574 15.7329 12.7749 15.7141C12.7925 15.6953 12.8049 15.6722 12.8109 15.6472C12.817 15.6222 12.8165 15.5961 12.8096 15.5713C12.8026 15.5465 12.7894 15.524 12.7712 15.5058L10.9912 13.7262C10.9729 13.7078 10.95 13.6945 10.925 13.6876C10.8999 13.6807 10.8735 13.6805 10.8484 13.6868C10.5703 13.7542 10.2852 13.7882 9.99906 13.7881V13.7881Z" />
</svg>
