<svg width="20" height="20" viewBox="0 0 20 20" fill="currentColor"
  xmlns="http://www.w3.org/2000/svg">
  <path d="M10.0008 12.3999C11.3263 12.3999 12.4008 11.3254 12.4008 9.99996C12.4008 8.67448 11.3263 7.59998 10.0008 7.59998C8.67532 7.59998 7.60081 8.67448 7.60081 9.99996C7.60081 11.3254 8.67532 12.3999 10.0008 12.3999Z" />
  <path d="M18.8071 9.34746C17.8149 7.81297 16.5275 6.50948 15.0845 5.57761C13.4882 4.54562 11.7257 4 9.98793 4C8.39345 4 6.82558 4.45562 5.32784 5.35412C3.80048 6.27023 2.41674 7.6086 1.21487 9.33171C1.07919 9.52645 1.00447 9.75713 1.00019 9.99443C0.995921 10.2317 1.06229 10.465 1.19087 10.6645C2.18124 12.2143 3.45586 13.5197 4.87635 14.4388C6.47571 15.4749 8.19695 15.9999 9.98793 15.9999C11.7395 15.9999 13.5058 15.4588 15.0954 14.4354C16.5376 13.5066 17.8224 12.1982 18.8109 10.651C18.935 10.4561 19.0007 10.2297 19 9.99866C18.9993 9.76761 18.9324 9.54161 18.8071 9.34746V9.34746ZM10.0007 13.5999C9.28868 13.5999 8.59266 13.3888 8.00065 12.9932C7.40863 12.5977 6.94722 12.0354 6.67474 11.3776C6.40227 10.7198 6.33098 9.99596 6.46988 9.29764C6.60879 8.59931 6.95165 7.95786 7.45512 7.45439C7.95858 6.95093 8.60004 6.60806 9.29836 6.46916C9.99669 6.33025 10.7205 6.40154 11.3783 6.67402C12.0361 6.94649 12.5984 7.40791 12.994 7.99992C13.3895 8.59193 13.6007 9.28795 13.6007 9.99996C13.5996 10.9544 13.2199 11.8694 12.545 12.5443C11.8702 13.2192 10.9551 13.5988 10.0007 13.5999V13.5999Z" />
</svg>
