<svg width="20" height="20" viewBox="0 0 20 20" fill="currentColor" xmlns="http://www.w3.org/2000/svg">
<path d="M17.3635 1.00006H2.63618C1.73209 1.00006 0.999817 1.73233 0.999817 2.63642V17.3637C0.999817 18.2678 1.73209 19.0001 2.63618 19.0001H10.818V11.6364H8.36345V9.18188H10.818V7.86379C10.818 5.36833 12.0338 4.27279 14.1079 4.27279C15.1012 4.27279 15.6265 4.34642 15.8752 4.37997V6.72733H14.4605C13.5802 6.72733 13.2725 7.19206 13.2725 8.13297V9.18188H15.8531L15.5029 11.6364H13.2725V19.0001H17.3635C18.2675 19.0001 18.9998 18.2678 18.9998 17.3637V2.63642C18.9998 1.73233 18.2667 1.00006 17.3635 1.00006Z" />
</svg>
