<svg width="20" height="20" viewBox="0 0 20 20" fill="currentColor" xmlns="http://www.w3.org/2000/svg">
<path d="M16.8906 1H3.10938C1.9462 1 1 1.9462 1 3.10938V16.8906C1 18.0538 1.9462 19 3.10938 19H16.8906C18.0538 19 19 18.0538 19 16.8906V3.10938C19 1.9462 18.0538 1 16.8906 1ZM17.5938 16.8906C17.5938 17.2783 17.2783 17.5938 16.8906 17.5938H12.7422V12.4609H14.9931L15.2554 10.2812H12.7422V7.92578C12.7422 7.32455 13.1956 6.87109 13.7969 6.87109H15.3789V4.83203C14.9625 4.77325 14.1593 4.69141 13.7969 4.69141C12.9769 4.69141 12.155 5.03734 11.5419 5.64035C10.9104 6.26163 10.5625 7.07544 10.5625 7.93196V10.2812H8.27734V12.4609H10.5625V17.5938H3.10938C2.72169 17.5938 2.40625 17.2783 2.40625 16.8906V3.10938C2.40625 2.72169 2.72169 2.40625 3.10938 2.40625H16.8906C17.2783 2.40625 17.5938 2.72169 17.5938 3.10938V16.8906Z" />
</svg>
