<svg width="20" height="20" viewBox="0 0 20 20" fill="currentColor"
  xmlns="http://www.w3.org/2000/svg">
  <path d="M1.99938 1H17.8394C18.0277 1.00012 18.2122 1.05342 18.3716 1.15378C18.531 1.25414 18.6588 1.39747 18.7403 1.56727C18.8218 1.73707 18.8537 1.92643 18.8323 2.11356C18.8109 2.30069 18.7371 2.47797 18.6194 2.625L12.1394 10.726C11.9971 10.9033 11.9196 11.1237 11.9194 11.351V16.5C11.9194 16.6552 11.8832 16.8084 11.8138 16.9472C11.7444 17.0861 11.6436 17.2069 11.5194 17.3L9.51938 18.8C9.37081 18.9114 9.19414 18.9793 9.00918 18.996C8.82422 19.0126 8.63827 18.9775 8.47216 18.8944C8.30606 18.8114 8.16636 18.6837 8.06873 18.5257C7.97109 18.3678 7.91938 18.1857 7.91938 18V11.35C7.91897 11.1231 7.84139 10.903 7.69938 10.726L1.21938 2.625C1.10166 2.47797 1.02786 2.30069 1.00647 2.11356C0.985081 1.92643 1.01697 1.73707 1.09848 1.56727C1.17998 1.39747 1.30778 1.25414 1.46716 1.15378C1.62655 1.05342 1.81103 1.00012 1.99938 1Z" />
</svg>
