<svg width="20" height="20" viewBox="0 0 20 20" fill="currentColor"
  xmlns="http://www.w3.org/2000/svg">
  <path d="M2.79978 2.8L8.63358 10.0909C8.88894 10.4102 9.02797 10.807 9.02778 11.2159V17.2L10.8278 15.85V11.215C10.8278 10.8064 10.9668 10.41 11.222 10.0909L17.0558 2.8H2.80068H2.79978ZM2.79978 1H17.0558C17.3949 1.00004 17.7271 1.09587 18.0141 1.27645C18.3011 1.45703 18.5313 1.71501 18.6781 2.02068C18.8249 2.32635 18.8824 2.66727 18.8439 3.00418C18.8055 3.3411 18.6726 3.66029 18.4607 3.925L12.6278 11.215V15.85C12.6278 16.1294 12.5627 16.405 12.4377 16.655C12.3128 16.9049 12.1313 17.1223 11.9078 17.29L10.1078 18.64C9.84035 18.8406 9.52236 18.9627 9.18943 18.9927C8.8565 19.0227 8.52178 18.9595 8.22279 18.81C7.9238 18.6605 7.67235 18.4307 7.49661 18.1463C7.32086 17.862 7.22778 17.5343 7.22778 17.2V11.215L1.39488 3.925C1.18294 3.66029 1.05009 3.3411 1.01162 3.00418C0.973153 2.66727 1.03064 2.32635 1.17745 2.02068C1.32427 1.71501 1.55444 1.45703 1.84146 1.27645C2.12848 1.09587 2.46068 1.00004 2.79978 1Z" />
</svg>
