<svg width="20" height="20" viewBox="0 0 20 20" fill="currentColor" xmlns="http://www.w3.org/2000/svg">
<path d="M19.9 8.53942L10.4302 1L1 8.54071L2.11266 9.92507L3.33519 8.94755V17.6603C3.33605 18.0135 3.477 18.352 3.72711 18.6015C3.97723 18.8509 4.31609 18.991 4.66935 18.9909H8.65311V14.5641H12.2534V19L16.232 18.9589C16.5852 18.9589 16.9241 18.8189 17.1742 18.5694C17.4243 18.32 17.5653 17.9815 17.5661 17.6282V8.95194L18.7899 9.92636L19.9 8.53942ZM15.7872 17.1894L14.0322 17.2076V12.7899H6.87425V17.2167H5.11406V7.5252L10.4328 3.27231L15.7872 7.53561V17.1894Z" />
</svg>
