<svg width="20" height="20" viewBox="0 0 20 20" fill="currentColor" xmlns="http://www.w3.org/2000/svg">
<path d="M10.4366 1L1 8.54065L2.12066 9.92457L3.33915 8.94875V17.6604C3.33915 17.8355 3.37367 18.0088 3.44076 18.1705C3.50784 18.3321 3.60617 18.479 3.7301 18.6026C3.85403 18.7262 4.00113 18.8242 4.16298 18.8908C4.32482 18.9575 4.49823 18.9916 4.67327 18.9911H7.76837V14.5643H13.1494V19L16.2356 18.9556C16.4106 18.9561 16.584 18.922 16.7459 18.8553C16.9077 18.7886 17.0548 18.6907 17.1788 18.5671C17.3027 18.4435 17.401 18.2966 17.4681 18.1349C17.5352 17.9733 17.5697 17.7999 17.5697 17.6249V8.94875L18.7971 9.92457L19.9 8.54065L10.4366 1Z" />
</svg>
