<svg width="20" height="20" viewBox="0 0 20 20" fill="currentColor" xmlns="http://www.w3.org/2000/svg">
<path d="M6 1C3.239 1 1 3.239 1 6V14C1 16.761 3.239 19 6 19H14C16.761 19 19 16.761 19 14V6C19 3.239 16.761 1 14 1H6ZM16 3C16.552 3 17 3.448 17 4C17 4.552 16.552 5 16 5C15.448 5 15 4.552 15 4C15 3.448 15.448 3 16 3ZM10 5C12.761 5 15 7.239 15 10C15 12.761 12.761 15 10 15C7.239 15 5 12.761 5 10C5 7.239 7.239 5 10 5ZM10 7C9.20435 7 8.44129 7.31607 7.87868 7.87868C7.31607 8.44129 7 9.20435 7 10C7 10.7957 7.31607 11.5587 7.87868 12.1213C8.44129 12.6839 9.20435 13 10 13C10.7956 13 11.5587 12.6839 12.1213 12.1213C12.6839 11.5587 13 10.7957 13 10C13 9.20435 12.6839 8.44129 12.1213 7.87868C11.5587 7.31607 10.7956 7 10 7Z" />
</svg>
