<svg width="20" height="20" viewBox="0 0 20 20" fill="currentColor" xmlns="http://www.w3.org/2000/svg">
<path d="M13.7713 1H6.22872C3.34559 1 1 3.34559 1 6.22872V13.7713C1 16.6544 3.34559 19 6.22872 19H13.7713C16.6544 19 19 16.6544 19 13.7713V6.22872C19 3.34559 16.6544 1 13.7713 1ZM17.5938 13.7713C17.5938 15.879 15.879 17.5938 13.7713 17.5938H6.22872C4.121 17.5938 2.40625 15.879 2.40625 13.7713V6.22872C2.40625 4.121 4.121 2.40625 6.22872 2.40625H13.7713C15.879 2.40625 17.5938 4.121 17.5938 6.22872V13.7713Z" />
<path d="M10 5.14844C7.32482 5.14844 5.14844 7.32482 5.14844 10C5.14844 12.6752 7.32482 14.8516 10 14.8516C12.6752 14.8516 14.8516 12.6752 14.8516 10C14.8516 7.32482 12.6752 5.14844 10 5.14844ZM10 13.4453C8.10026 13.4453 6.55469 11.8997 6.55469 10C6.55469 8.10026 8.10026 6.55469 10 6.55469C11.8997 6.55469 13.4453 8.10026 13.4453 10C13.4453 11.8997 11.8997 13.4453 10 13.4453Z" />
<path d="M14.9219 5.78125C15.3102 5.78125 15.625 5.46645 15.625 5.07812C15.625 4.6898 15.3102 4.375 14.9219 4.375C14.5335 4.375 14.2188 4.6898 14.2188 5.07812C14.2188 5.46645 14.5335 5.78125 14.9219 5.78125Z" />
</svg>
