<svg width="20" height="20" viewBox="0 0 20 20" fill="currentColor" xmlns="http://www.w3.org/2000/svg">
<g clip-path="url(#clip0)">
<path d="M6.62527 15.8711H4.16434V7.92578H6.62527V15.8711ZM6.87082 5.39439C6.87082 4.59885 6.22537 3.95312 5.43024 3.95312C4.63208 3.95312 3.98828 4.59885 3.98828 5.39439C3.98828 6.19022 4.63208 6.83594 5.43024 6.83594C6.22537 6.83594 6.87082 6.19022 6.87082 5.39439ZM15.8359 11.4999C15.8359 9.36705 15.3854 7.78516 12.8938 7.78516C11.6966 7.78516 10.8929 8.38391 10.5648 9.00656H10.5625V7.92578H8.17188V15.8711H10.5625V11.9262C10.5625 10.8931 10.8255 9.8922 12.1061 9.8922C13.3692 9.8922 13.4102 11.0736 13.4102 11.9918V15.8711H15.8359V11.4999ZM19 16.8906V3.10938C19 1.9462 18.0538 1 16.8906 1H3.10938C1.9462 1 1 1.9462 1 3.10938V16.8906C1 18.0538 1.9462 19 3.10938 19H16.8906C18.0538 19 19 18.0538 19 16.8906V16.8906ZM16.8906 2.40625C17.2783 2.40625 17.5938 2.72169 17.5938 3.10938V16.8906C17.5938 17.2783 17.2783 17.5938 16.8906 17.5938H3.10938C2.72169 17.5938 2.40625 17.2783 2.40625 16.8906V3.10938C2.40625 2.72169 2.72169 2.40625 3.10938 2.40625H16.8906Z" />
</g>
<defs>
<clipPath id="clip0">
<rect width="18" height="18" />
</clipPath>
</defs>
</svg>
