<svg width="20" height="20" viewBox="0 0 20 20" fill="currentColor" xmlns="http://www.w3.org/2000/svg">
<path d="M16.8572 1H3.14287C1.96002 1 1.00002 1.96 1.00002 3.14286V16.8571C1.00002 18.04 1.96002 19 3.14287 19H16.8572C18.04 19 19 18.04 19 16.8571V3.14286C19 1.96 18.04 1 16.8572 1ZM6.57144 7.85714V16H4.00002V7.85714H6.57144ZM4.00002 5.48714C4.00002 4.88714 4.5143 4.42857 5.28573 4.42857C6.05716 4.42857 6.54144 4.88714 6.57144 5.48714C6.57144 6.08714 6.09144 6.57143 5.28573 6.57143C4.5143 6.57143 4.00002 6.08714 4.00002 5.48714ZM16 16H13.4286C13.4286 16 13.4286 12.0314 13.4286 11.7143C13.4286 10.8571 13 10 11.9286 9.98286H11.8943C10.8572 9.98286 10.4286 10.8657 10.4286 11.7143C10.4286 12.1043 10.4286 16 10.4286 16H7.85716V7.85714H10.4286V8.95429C10.4286 8.95429 11.2557 7.85714 12.9186 7.85714C14.62 7.85714 16 9.02714 16 11.3971V16Z" />
</svg>
