<svg width="20" height="20" viewBox="0 0 20 20" fill="currentColor" xmlns="http://www.w3.org/2000/svg">
<path fill-rule="evenodd" clip-rule="evenodd" d="M13.1841 15.0024C11.9231 15.9004 10.3804 16.4286 8.71429 16.4286C4.4538 16.4286 1 12.9748 1 8.71429C1 4.4538 4.4538 1 8.71429 1C12.9748 1 16.4286 4.4538 16.4286 8.71429C16.4286 10.3804 15.9004 11.9231 15.0024 13.1841L18.6234 16.8051C19.1255 17.3073 19.1255 18.1213 18.6234 18.6234C18.1213 19.1255 17.3073 19.1255 16.8051 18.6234L13.1841 15.0024ZM13.8571 8.71429C13.8571 11.5546 11.5546 13.8571 8.71429 13.8571C5.87396 13.8571 3.57143 11.5546 3.57143 8.71429C3.57143 5.87396 5.87396 3.57143 8.71429 3.57143C11.5546 3.57143 13.8571 5.87396 13.8571 8.71429Z" />
</svg>
