<svg width="20" height="20" viewBox="0 0 20 20" fill="currentColor" xmlns="http://www.w3.org/2000/svg">
<path d="M10 15C7.2425 15 5 12.7575 5 10C5 7.2425 7.2425 5 10 5C10.6392 5 11.2517 5.11667 11.8225 5.34667C11.9808 5.41083 12.0842 5.565 12.0833 5.73583C12.0825 5.90667 11.9775 6.05917 11.8183 6.12167C10.2075 6.75 9.16667 8.2725 9.16667 10C9.16667 11.7275 10.2075 13.25 11.8183 13.8783C11.9775 13.9408 12.0825 14.0933 12.0833 14.2642C12.0842 14.435 11.9808 14.5892 11.8225 14.6533C11.2517 14.8833 10.6392 15 10 15ZM10 5.83333C7.7025 5.83333 5.83333 7.7025 5.83333 10C5.83333 12.2975 7.7025 14.1667 10 14.1667C10.1767 14.1667 10.3508 14.1558 10.5217 14.135C9.165 13.22 8.33333 11.6917 8.33333 10C8.33333 8.30833 9.165 6.78 10.5217 5.865C10.3508 5.84417 10.1767 5.83333 10 5.83333Z" />
<path d="M10 19.7442C9.4675 19.7442 8.93583 19.5417 8.53 19.1367L6.89416 17.5H4.58333C3.43416 17.5 2.5 16.565 2.5 15.4167V13.1058L0.863329 11.47C0.0533287 10.6592 0.0533287 9.34083 0.863329 8.53083L2.5 6.89417V4.58333C2.5 3.435 3.43416 2.5 4.58333 2.5H6.89416L8.53 0.864167C9.34083 0.0533341 10.6592 0.0533341 11.4692 0.864167L13.1058 2.5H15.4167C16.5658 2.5 17.5 3.435 17.5 4.58333V6.89417L19.1367 8.53C19.9467 9.34083 19.9467 10.6592 19.1367 11.4692L17.5 13.1058V15.4167C17.5 16.565 16.5658 17.5 15.4167 17.5H13.1058L11.47 19.1358C11.0642 19.5417 10.5325 19.7442 10 19.7442V19.7442ZM4.58333 3.33333C3.89416 3.33333 3.33333 3.89417 3.33333 4.58333V7.06667C3.33333 7.1775 3.28916 7.28333 3.21166 7.36167L1.45333 9.12C0.968329 9.60583 0.968329 10.3958 1.45333 10.8808L3.21166 12.6392C3.28916 12.7167 3.33333 12.8225 3.33333 12.9333V15.4167C3.33333 16.1058 3.89416 16.6667 4.58333 16.6667H7.06666C7.1775 16.6667 7.28333 16.7108 7.36166 16.7883L9.11917 18.5467C9.60417 19.0317 10.395 19.0325 10.88 18.5467L12.6375 16.7883C12.7167 16.7108 12.8225 16.6667 12.9333 16.6667H15.4167C16.1058 16.6667 16.6667 16.1058 16.6667 15.4167V12.9333C16.6667 12.8225 16.7108 12.7167 16.7883 12.6383L18.5467 10.88C19.0317 10.3942 19.0317 9.60417 18.5467 9.11917L16.7883 7.36083C16.7108 7.28333 16.6667 7.1775 16.6667 7.06667V4.58333C16.6667 3.89417 16.1058 3.33333 15.4167 3.33333H12.9333C12.8225 3.33333 12.7167 3.28917 12.6383 3.21167L10.8808 1.45333C10.3958 0.968334 9.605 0.967501 9.12 1.45333L7.3625 3.21167C7.28333 3.28917 7.1775 3.33333 7.06666 3.33333H4.58333ZM18.8417 11.175H18.85H18.8417Z" />
</svg>
