<svg width="20" height="20" viewBox="0 0 20 20" fill="currentColor" xmlns="http://www.w3.org/2000/svg">
<path d="M2.25833 13.2083V15.4416C2.25833 16.7083 3.29167 17.7416 4.55833 17.7416H6.79167L8.375 19.325C8.80833 19.7583 9.39167 20 10 20C10.6083 20 11.1917 19.7583 11.625 19.325L13.2083 17.7416H15.4417C16.7083 17.7416 17.7417 16.7083 17.7417 15.4416V13.2083L19.325 11.625C19.7583 11.1916 20 10.6083 20 9.99996C20 9.39163 19.7583 8.8083 19.325 8.37496L17.7417 6.79163V4.5583C17.7417 3.29163 16.7083 2.2583 15.4417 2.2583H13.2083L11.625 0.674963C10.7583 -0.191703 9.24167 -0.191703 8.375 0.674963L6.79167 2.2583H4.55833C3.29167 2.2583 2.25833 3.29163 2.25833 4.5583V6.79163L0.675 8.37496C0.241667 8.8083 0 9.39163 0 9.99996C0 10.6083 0.241667 11.1916 0.675 11.625L2.25833 13.2083ZM10 4.99996C10.6667 4.99996 11.3083 5.12496 11.9 5.3583C12.1417 5.4583 12.2917 5.69163 12.2917 5.94163C12.2917 6.19996 12.1333 6.4333 11.8917 6.52496C10.575 7.04163 9.16667 8.22496 9.16667 9.99996C9.16667 11.775 10.575 12.9583 11.8917 13.475C12.1333 13.5666 12.2917 13.8 12.2917 14.0583C12.2917 14.3083 12.1417 14.5416 11.9 14.6416C11.3083 14.875 10.6667 15 10 15C7.1 15 5 12.9 5 9.99996C5 7.09996 7.1 4.99996 10 4.99996Z" />
</svg>
