<svg width="20" height="20" viewBox="0 0 20 20" fill="currentColor" xmlns="http://www.w3.org/2000/svg">
<path d="M10.3333 4.66667C9.71449 4.66667 9.121 4.42083 8.68342 3.98325C8.24583 3.54566 8 2.95217 8 2.33333C8 1.71449 8.24583 1.121 8.68342 0.683418C9.121 0.245833 9.71449 0 10.3333 0C10.9522 0 11.5457 0.245833 11.9832 0.683418C12.4208 1.121 12.6667 1.71449 12.6667 2.33333C12.6667 2.95217 12.4208 3.54566 11.9832 3.98325C11.5457 4.42083 10.9522 4.66667 10.3333 4.66667Z" />
<path d="M10.3333 12.3333C9.71449 12.3333 9.121 12.0875 8.68342 11.6499C8.24583 11.2123 8 10.6188 8 10C8 9.38116 8.24583 8.78767 8.68342 8.35008C9.121 7.9125 9.71449 7.66666 10.3333 7.66666C10.9522 7.66666 11.5457 7.9125 11.9832 8.35008C12.4208 8.78767 12.6667 9.38116 12.6667 10C12.6667 10.6188 12.4208 11.2123 11.9832 11.6499C11.5457 12.0875 10.9522 12.3333 10.3333 12.3333Z" />
<path d="M8 17.6667C8 18.2855 8.24583 18.879 8.68342 19.3166C9.121 19.7542 9.71449 20 10.3333 20C10.9522 20 11.5457 19.7542 11.9832 19.3166C12.4208 18.879 12.6667 18.2855 12.6667 17.6667C12.6667 17.0478 12.4208 16.4543 11.9832 16.0168C11.5457 15.5792 10.9522 15.3333 10.3333 15.3333C9.71449 15.3333 9.121 15.5792 8.68342 16.0168C8.24583 16.4543 8 17.0478 8 17.6667Z" />
</svg>
