<svg width="20" height="20" viewBox="0 0 20 20" fill="currentColor" xmlns="http://www.w3.org/2000/svg">
<path d="M13.654 1.91722C14.877 0.694259 16.8598 0.694259 18.0828 1.91722C19.2548 3.08923 19.3036 4.95909 18.2293 6.18925L18.0828 6.34597L7.27352 17.1552C7.04273 17.386 6.76508 17.5633 6.46028 17.6756L6.27429 17.7351L1.7113 18.9796C1.32129 19.0859 0.961131 18.7612 1.00338 18.378L1.02045 18.2887L2.2649 13.7257C2.35078 13.4108 2.50389 13.1192 2.71281 12.8704L2.84477 12.7265L13.654 1.91722ZM12.6861 4.47712L3.64047 13.5222C3.53661 13.626 3.45443 13.7489 3.3981 13.8835L3.35053 14.0218L2.36407 17.6347L5.97821 16.6495C6.07267 16.6237 6.16296 16.5858 6.24694 16.5371L6.36791 16.456L6.47782 16.3595L15.5229 7.31396L12.6861 4.47712ZM17.2871 2.71292C16.5471 1.97293 15.3729 1.93182 14.5847 2.58959L14.4497 2.71292L13.4816 3.68155L16.3185 6.51838L17.2871 5.55027C18.0271 4.81029 18.0682 3.63608 17.4104 2.84784L17.2871 2.71292Z" />
</svg>
