<svg width="20" height="20" viewBox="0 0 20 20" fill="currentColor" xmlns="http://www.w3.org/2000/svg">
<path d="M9.745 0.0174999L10 0C10.4531 1.91072e-05 10.8909 0.164107 11.2323 0.461918C11.5738 0.759728 11.7959 1.17112 11.8575 1.62L11.875 1.875V8.1225L18.125 8.125C18.5781 8.12502 19.0159 8.28911 19.3573 8.58692C19.6988 8.88473 19.9209 9.29612 19.9825 9.745L20 10C20 10.4531 19.8359 10.8909 19.5381 11.2323C19.2403 11.5738 18.8289 11.7959 18.38 11.8575L18.125 11.875L11.875 11.8725V18.125C11.875 18.5781 11.7109 19.0159 11.4131 19.3573C11.1153 19.6988 10.7039 19.9209 10.255 19.9825L10 20C9.54691 20 9.10915 19.8359 8.76767 19.5381C8.4262 19.2403 8.20412 18.8289 8.1425 18.38L8.125 18.125V11.8725L1.875 11.875C1.42191 11.875 0.984145 11.7109 0.642673 11.4131C0.301202 11.1153 0.0791207 10.7039 0.0174999 10.255L0 10C1.91072e-05 9.54691 0.164107 9.10915 0.461918 8.76767C0.759728 8.4262 1.17112 8.20412 1.62 8.1425L1.875 8.125L8.125 8.1225V1.875C8.12502 1.42191 8.28911 0.984145 8.58692 0.642673C8.88473 0.301202 9.29612 0.0791207 9.745 0.0174999Z" />
</svg>
