<svg width="20" height="20" viewBox="0 0 20 20" fill="currentColor" xmlns="http://www.w3.org/2000/svg">
<path d="M17.7143 11.2857H11.2857V17.7143C11.2857 18.0553 11.1503 18.3823 10.9091 18.6234C10.668 18.8645 10.341 19 10 19C9.65901 19 9.33198 18.8645 9.09086 18.6234C8.84975 18.3823 8.71429 18.0553 8.71429 17.7143V11.2857H2.28571C1.94472 11.2857 1.6177 11.1503 1.37658 10.9091C1.13546 10.668 1 10.341 1 10C1 9.65901 1.13546 9.33198 1.37658 9.09086C1.6177 8.84975 1.94472 8.71429 2.28571 8.71429H8.71429V2.28571C8.71429 1.94472 8.84975 1.61769 9.09086 1.37658C9.33198 1.13546 9.65901 1 10 1C10.341 1 10.668 1.13546 10.9091 1.37658C11.1503 1.61769 11.2857 1.94472 11.2857 2.28571V8.71429H17.7143C18.0553 8.71429 18.3823 8.84975 18.6234 9.09086C18.8645 9.33198 19 9.65901 19 10C19 10.341 18.8645 10.668 18.6234 10.9091C18.3823 11.1503 18.0553 11.2857 17.7143 11.2857Z" />
</svg>
