<svg width="20" height="20" viewBox="0 0 20 20" fill="currentColor" xmlns="http://www.w3.org/2000/svg">
<path fill-rule="evenodd" clip-rule="evenodd" d="M10 20C4.477 20 0 15.523 0 10C0 4.477 4.477 0 10 0C15.523 0 20 4.477 20 10C20 15.523 15.523 20 10 20ZM10 18C12.1217 18 14.1566 17.1571 15.6569 15.6569C17.1571 14.1566 18 12.1217 18 10C18 7.87827 17.1571 5.84344 15.6569 4.34315C14.1566 2.84285 12.1217 2 10 2C7.87827 2 5.84344 2.84285 4.34315 4.34315C2.84285 5.84344 2 7.87827 2 10C2 12.1217 2.84285 14.1566 4.34315 15.6569C5.84344 17.1571 7.87827 18 10 18ZM9 15C9 14.4477 9.44772 14 10 14V14C10.5523 14 11 14.4477 11 15V15C11 15.5523 10.5523 16 10 16V16C9.44772 16 9 15.5523 9 15V15ZM9 12.008C9 12.008 11 12 11 12.008C11 11.006 14 10 14 8C14 5.79 12.227 4 10.009 4C9.48296 3.99882 8.96184 4.10141 8.4755 4.30189C7.98916 4.50238 7.54714 4.79683 7.17475 5.16839C6.80237 5.53994 6.50692 5.9813 6.30534 6.46719C6.10376 6.95308 6 7.47395 6 8H8C8 6.9 8.9 6 10 6C11.1 6 12 6.9 12 8C12 8.9 9 10.367 9 12.008Z" />
</svg>
