<svg width="20" height="20" viewBox="0 0 20 20" fill="currentColor" xmlns="http://www.w3.org/2000/svg">
<path d="M10 0C4.4775 0 0 4.4775 0 10C0 15.5225 4.4775 20 10 20C15.5225 20 20 15.5225 20 10C20 4.4775 15.5225 0 10 0ZM10 16.25C9.31 16.25 8.75 15.69 8.75 15C8.75 14.31 9.31 13.75 10 13.75C10.69 13.75 11.25 14.31 11.25 15C11.25 15.69 10.69 16.25 10 16.25ZM11.7233 10.4167C11.1717 10.9258 10.8333 11.26 10.8333 11.6667H9.16667C9.16667 10.5092 9.9575 9.77917 10.5925 9.19167C11.2583 8.57667 11.6667 8.16583 11.6667 7.5C11.6667 6.58083 10.9192 5.83333 10 5.83333C9.08083 5.83333 8.33333 6.58083 8.33333 7.5H6.66667C6.66667 5.66167 8.16167 4.16667 10 4.16667C11.8383 4.16667 13.3333 5.66167 13.3333 7.5C13.3333 8.92917 12.4408 9.75333 11.7233 10.4167Z" />
</svg>
