<svg width="20" height="20" viewBox="0 0 20 20" fill="currentColor" xmlns="http://www.w3.org/2000/svg">
<path d="M16.3342 3.64739C15.3915 2.69617 14.2472 1.96885 12.9857 1.51916C11.7242 1.06947 10.3778 0.90888 9.04596 1.04926C4.91819 1.46541 1.5215 4.81712 1.06036 8.94489C0.441754 14.3998 4.6595 19 9.97949 19C11.678 19 13.3416 18.5181 14.777 17.6102C16.2125 16.7023 17.3609 15.4058 18.0888 13.8712C18.4487 13.1176 17.9089 12.2516 17.0766 12.2516C16.6604 12.2516 16.2667 12.4765 16.0868 12.8477C15.4338 14.2525 14.3169 15.3896 12.924 16.0676C11.531 16.7456 9.9471 16.9232 8.43861 16.5706C5.9417 16.0195 3.92843 13.9837 3.3998 11.4868C3.17759 10.4996 3.18016 9.47501 3.40733 8.48892C3.6345 7.50282 4.08045 6.58042 4.7122 5.78992C5.34395 4.99943 6.14533 4.36107 7.05706 3.92207C7.9688 3.48307 8.96757 3.25466 9.97949 3.25374C11.8465 3.25374 13.5112 4.0298 14.7259 5.25576L13.0275 6.95411C12.3189 7.66269 12.8138 8.8774 13.8148 8.8774H17.8526C18.4712 8.8774 18.9774 8.37127 18.9774 7.75267V3.71488C18.9774 2.71386 17.7626 2.20773 17.0541 2.91632L16.3342 3.64739V3.64739Z" />
</svg>
