<svg width="20" height="20" viewBox="0 0 20 20" fill="currentColor" xmlns="http://www.w3.org/2000/svg">
<path d="M1 10C1 11.654 2.346 13 4 13C4.794 13 5.512 12.685 6.049 12.18L12.04 15.604C12.022 15.734 12 15.864 12 16C12 17.654 13.346 19 15 19C16.654 19 18 17.654 18 16C18 14.346 16.654 13 15 13C14.206 13 13.488 13.315 12.951 13.82L6.96 10.397C6.978 10.266 7 10.136 7 10C7 9.864 6.978 9.734 6.96 9.603L12.951 6.18C13.488 6.685 14.206 7 15 7C16.654 7 18 5.654 18 4C18 2.346 16.654 1 15 1C13.346 1 12 2.346 12 4C12 4.136 12.022 4.266 12.04 4.397L6.049 7.82C5.496 7.29468 4.76273 7.00123 4 7C2.346 7 1 8.346 1 10Z" />
</svg>
