<svg width="20" height="20" viewBox="0 0 20 20" fill="currentColor" xmlns="http://www.w3.org/2000/svg">
<path fill-rule="evenodd" clip-rule="evenodd" d="M5.16568 1.6983C5.02883 1.56144 4.84321 1.48456 4.64967 1.48456C4.45613 1.48456 4.27051 1.56144 4.13365 1.6983C3.9968 1.83516 3.91991 2.02077 3.91991 2.21431V16.5068L2.24734 14.8332C2.11032 14.6962 1.92447 14.6192 1.73068 14.6192C1.53689 14.6192 1.35104 14.6962 1.21401 14.8332C1.07698 14.9703 1 15.1561 1 15.3499C1 15.5437 1.07698 15.7295 1.21401 15.8666L4.13303 18.7856C4.20082 18.8536 4.28135 18.9075 4.37001 18.9443C4.45867 18.9811 4.55371 19 4.6497 19C4.74569 19 4.84073 18.9811 4.92939 18.9443C5.01805 18.9075 5.09858 18.8536 5.16637 18.7856L8.08539 15.8666C8.15335 15.7988 8.20727 15.7183 8.24406 15.6296C8.28085 15.5409 8.29978 15.4459 8.29978 15.3499C8.29978 15.2539 8.28085 15.1589 8.24406 15.0702C8.20727 14.9816 8.15335 14.901 8.08539 14.8332C8.0176 14.7653 7.93707 14.7114 7.84842 14.6746C7.75976 14.6378 7.66471 14.6188 7.56872 14.6188C7.47273 14.6188 7.37769 14.6378 7.28903 14.6746C7.20037 14.7114 7.11984 14.7653 7.05206 14.8332L5.37943 16.5069V2.21431C5.37943 2.02077 5.30254 1.83516 5.16568 1.6983Z" />
<path d="M12.9164 8.78212L13.5265 6.78113H16.1259L16.736 8.78212H18.3721L15.7741 1H13.9716L11.3591 8.78212H12.9164ZM14.8663 2.48724L15.8179 5.63541H13.8461L14.7977 2.48724H14.8663V2.48724ZM11.9867 18.9987H17.7284V17.7333H13.868V17.653L17.6146 12.2251V11.2166H12.0903V12.482H15.7493V12.5623L11.9867 17.9902V18.9987V18.9987Z" />
</svg>
