<svg width="20" height="20" viewBox="0 0 20 20" fill="currentColor" xmlns="http://www.w3.org/2000/svg">
<path fill-rule="evenodd" clip-rule="evenodd" d="M8.24458 5.41334C8.20779 5.502 8.15387 5.58254 8.0859 5.65033C8.01811 5.71829 7.93758 5.77222 7.84891 5.80901C7.76025 5.8458 7.66519 5.86474 7.5692 5.86474C7.4732 5.86474 7.37815 5.8458 7.28949 5.80901C7.20082 5.77222 7.12029 5.71829 7.05249 5.65033L5.37974 3.97656V18.2702C5.37974 18.4637 5.30285 18.6494 5.16599 18.7862C5.02912 18.9231 4.84349 19 4.64993 19C4.45638 19 4.27075 18.9231 4.13388 18.7862C3.99702 18.6494 3.92013 18.4637 3.92013 18.2702V3.97662L2.24744 5.65033C2.17958 5.71818 2.09903 5.77201 2.01037 5.80873C1.92171 5.84545 1.82669 5.86436 1.73073 5.86436C1.63477 5.86436 1.53975 5.84545 1.45109 5.80873C1.36244 5.77201 1.28188 5.71818 1.21403 5.65033C1.14617 5.58247 1.09235 5.50192 1.05562 5.41326C1.0189 5.32461 1 5.22959 1 5.13362C1 5.03766 1.0189 4.94264 1.05562 4.85399C1.09235 4.76533 1.14617 4.68477 1.21403 4.61692L4.13326 1.69769C4.20105 1.62972 4.28159 1.5758 4.37025 1.53901C4.45892 1.50221 4.55397 1.48328 4.64997 1.48328C4.74596 1.48328 4.84101 1.50221 4.92968 1.53901C5.01834 1.5758 5.09888 1.62972 5.16667 1.69769L8.0859 4.61692C8.15387 4.68471 8.20779 4.76525 8.24458 4.85391C8.28137 4.94258 8.30031 5.03763 8.30031 5.13362C8.30031 5.22962 8.28137 5.32467 8.24458 5.41334Z" />
<path d="M11.9875 8.78268H17.7296V7.51719H13.8689V7.43691L17.6158 2.0086V1H12.0911V2.26549H15.7504V2.34577L11.9875 7.77408V8.78268ZM12.9173 19L13.5274 16.9989H16.127L16.7371 19H18.3733L15.7752 11.2173H13.9726L11.3599 19H12.9173ZM14.8673 12.7047L15.819 15.8531H13.8471L14.7987 12.7061H14.8673V12.7047Z" />
</svg>
