<svg width="20" height="20" viewBox="0 0 20 20" fill="currentColor" xmlns="http://www.w3.org/2000/svg">
<path d="M10 1C5.03745 1 1 5.03745 1 10C1 14.9625 5.03745 19 10 19C14.9625 19 19 14.9625 19 10C19 5.03745 14.9625 1 10 1ZM13.2586 12.2799C13.3256 12.3435 13.3792 12.4199 13.4162 12.5046C13.4532 12.5893 13.4728 12.6805 13.474 12.7729C13.4752 12.8653 13.4579 12.957 13.4231 13.0426C13.3882 13.1282 13.3366 13.206 13.2713 13.2713C13.206 13.3366 13.1282 13.3882 13.0426 13.4231C12.957 13.4579 12.8653 13.4752 12.7729 13.474C12.6805 13.4728 12.5893 13.4532 12.5046 13.4162C12.4199 13.3792 12.3435 13.3256 12.2799 13.2586L10 10.9792L7.72014 13.2586C7.58926 13.383 7.41497 13.4513 7.23444 13.4489C7.05391 13.4466 6.88143 13.3739 6.75377 13.2462C6.6261 13.1186 6.55336 12.9461 6.55105 12.7656C6.54874 12.585 6.61704 12.4107 6.74139 12.2799L9.02082 10L6.74139 7.72014C6.61704 7.58926 6.54874 7.41497 6.55105 7.23444C6.55336 7.05391 6.6261 6.88143 6.75377 6.75377C6.88143 6.6261 7.05391 6.55336 7.23444 6.55105C7.41497 6.54874 7.58926 6.61704 7.72014 6.74139L10 9.02082L12.2799 6.74139C12.4107 6.61704 12.585 6.54874 12.7656 6.55105C12.9461 6.55336 13.1186 6.6261 13.2462 6.75377C13.3739 6.88143 13.4466 7.05391 13.4489 7.23444C13.4513 7.41497 13.383 7.58926 13.2586 7.72014L10.9792 10L13.2586 12.2799Z" />
</svg>
