<svg width="20" height="20" viewBox="0 0 20 20" fill="currentColor"
  xmlns="http://www.w3.org/2000/svg">
  <g clip-path="url(#clip0)">
    <path d="M16.364 5.45431L11.8183 10L16.364 14.5457C16.6051 14.7868 16.7405 15.1138 16.7405 15.4548C16.7405 15.7958 16.6051 16.1228 16.364 16.364C16.1228 16.6051 15.7958 16.7405 15.4548 16.7405C15.1138 16.7405 14.7868 16.6051 14.5457 16.364L10 11.8183L5.45432 16.364C5.2132 16.6051 4.88617 16.7405 4.54518 16.7405C4.20419 16.7405 3.87716 16.6051 3.63604 16.364C3.39492 16.1228 3.25946 15.7958 3.25946 15.4548C3.25946 15.1138 3.39492 14.7868 3.63604 14.5457L8.18173 10L3.63604 5.45431C3.39492 5.2132 3.25946 4.88617 3.25946 4.54518C3.25946 4.20418 3.39492 3.87716 3.63604 3.63604C3.87716 3.39492 4.20419 3.25946 4.54518 3.25946C4.88617 3.25946 5.2132 3.39492 5.45432 3.63604L10 8.18173L14.5457 3.63604C14.7868 3.39492 15.1138 3.25946 15.4548 3.25946C15.7958 3.25946 16.1228 3.39492 16.364 3.63604C16.6051 3.87716 16.7405 4.20418 16.7405 4.54518C16.7405 4.88617 16.6051 5.2132 16.364 5.45431Z" />
  </g>
  <defs>
    <clipPath id="clip0">
      <rect width="20" height="20" />
    </clipPath>
  </defs>
</svg>
