<svg width="20" height="20" viewBox="0 0 20 20" fill="currentColor" xmlns="http://www.w3.org/2000/svg">
<path d="M18.0988 4.60099H13.5991V3.0981C13.578 2.52197 13.3293 1.97773 12.9076 1.58466C12.4859 1.1916 11.9255 0.981796 11.3493 1.00124H8.64947C8.07329 0.981796 7.51291 1.1916 7.09117 1.58466C6.66942 1.97773 6.42074 2.52197 6.39963 3.0981V4.60099H1.89994C1.66126 4.60099 1.43236 4.69581 1.26359 4.86458C1.09481 5.03335 1 5.26225 1 5.50093C1 5.73961 1.09481 5.96851 1.26359 6.13728C1.43236 6.30605 1.66126 6.40087 1.89994 6.40087H2.79988V16.3002C2.79988 17.0162 3.08432 17.7029 3.59063 18.2092C4.09695 18.7156 4.78365 19 5.49969 19H14.4991C15.2151 19 15.9018 18.7156 16.4081 18.2092C16.9144 17.7029 17.1989 17.0162 17.1989 16.3002V6.40087H18.0988C18.3375 6.40087 18.5664 6.30605 18.7352 6.13728C18.9039 5.96851 18.9988 5.73961 18.9988 5.50093C18.9988 5.26225 18.9039 5.03335 18.7352 4.86458C18.5664 4.69581 18.3375 4.60099 18.0988 4.60099ZM8.1995 3.0981C8.1995 2.95411 8.38849 2.80112 8.64947 2.80112H11.3493C11.6103 2.80112 11.7993 2.95411 11.7993 3.0981V4.60099H8.1995V3.0981ZM15.399 16.3002C15.399 16.5389 15.3042 16.7678 15.1354 16.9365C14.9667 17.1053 14.7377 17.2001 14.4991 17.2001H5.49969C5.26101 17.2001 5.03211 17.1053 4.86334 16.9365C4.69457 16.7678 4.59975 16.5389 4.59975 16.3002V6.40087H15.399V16.3002Z" />
</svg>
