<svg width="20" height="20" viewBox="0 0 20 20" fill="currentColor" xmlns="http://www.w3.org/2000/svg">
<g clip-path="url(#clip0)">
<path d="M20.919 4.00201C20.1356 4.34914 19.2775 4.55518 18.4267 4.65573C19.3226 4.11931 19.9858 3.27982 20.3061 2.286C19.4636 2.78587 18.5765 3.15885 17.6154 3.34829C16.7849 2.46507 15.6689 2 14.5452 2C13.4421 2 12.3881 2.37203 11.543 3.16683C10.6709 3.98685 10.1752 5.12128 10.1735 6.29002C10.173 6.61528 10.226 6.9431 10.3013 7.26756C6.85047 7.09456 3.65019 5.45755 1.47086 2.77629C1.07586 3.45634 0.857525 4.20741 0.858004 4.94173C0.858962 6.32481 1.54635 7.67358 2.7783 8.49631C2.09521 8.47605 1.41405 8.33879 0.817147 8.00603V8.08423C0.817785 10.1273 2.28737 11.8097 4.29002 12.2143C3.93619 12.3109 3.47734 12.3792 3.10883 12.3792C3.10755 12.3792 3.10627 12.3792 3.10516 12.3792C2.81708 12.3787 2.529 12.3503 2.24715 12.296C2.80942 14.0445 4.53756 15.3259 6.37374 15.3603C4.85404 16.5548 2.4923 17.1172 1.02175 17.1172C0.680211 17.1166 0.338988 17.1169 0 17.0764C1.95812 18.3329 4.23592 18.9966 6.56223 18.9966H6.57851V19C14.4226 19 18.7944 12.458 18.7944 6.78637C18.7944 6.6006 18.7661 6.39232 18.7535 6.2083C19.5935 5.60071 20.3426 4.86384 20.919 4.00201ZM16.4596 10.5105C15.9782 11.7863 15.2865 12.9392 14.4038 13.9374C13.4678 14.9957 12.359 15.8265 11.1087 16.4067C9.8222 17.0036 8.40145 17.3244 6.88159 17.3619L6.57564 17.3624H6.56223C6.47381 17.3624 6.38555 17.3612 6.29746 17.359C6.68193 17.1467 7.04789 16.9091 7.38353 16.6453C8.22717 15.8616 8.60366 14.8689 8.74347 13.7703C8.74347 13.7703 8.05576 13.8539 7.2726 13.8486C6.66581 13.8445 6.00188 13.7947 5.55564 13.5631C6.66613 13.0639 7.24978 12.2362 7.48727 11.1929C6.53717 11.2746 4.33088 10.7843 3.53943 10.1539C4.41259 9.84461 5.22974 9.19089 5.5566 8.65974C5.5566 8.65974 4.00402 7.92431 2.90805 6.34763C5.03678 7.86654 7.57185 8.76715 10.2196 8.89978L12.3798 8.9866L11.9329 7.06886L11.8494 6.68854C11.8213 6.53437 11.8076 6.40365 11.8078 6.29241C11.8087 5.57262 12.1204 4.86719 12.6626 4.35728C13.1727 3.87752 13.8061 3.63429 14.5452 3.63429C15.0912 3.63429 15.6303 3.82102 16.0778 4.15714C16.7924 4.7783 17.1601 5.59544 17.1601 6.78637C17.1601 8.00842 16.9178 9.29622 16.4596 10.5105V10.5105Z" />
</g>
<defs>
<clipPath id="clip0">
<rect width="20" height="20" />
</clipPath>
</defs>
</svg>
