<svg width="20" height="20" viewBox="0 0 20 20" fill="currentColor" xmlns="http://www.w3.org/2000/svg">
<g clip-path="url(#clip0)">
<path d="M20.92 4.0101C20.1512 4.35362 19.3244 4.58283 18.4522 4.69128C19.3389 4.16017 20.0211 3.3131 20.3413 2.31245C19.5115 2.8031 18.5923 3.16362 17.6143 3.35355C16.8334 2.51821 15.7195 2 14.4853 2C12.1146 2 10.193 3.92159 10.193 6.29103C10.193 6.62634 10.2319 6.95286 10.3051 7.27C6.73858 7.08945 3.57527 5.3789 1.45904 2.78317C1.08716 3.41745 0.877978 4.16017 0.877978 4.94393C0.877978 6.43348 1.63394 7.74483 2.78677 8.51745C2.0831 8.49576 1.42069 8.29821 0.84079 7.98166C0.84079 7.99455 0.84079 8.0139 0.84079 8.03207C0.84079 10.1137 2.32076 11.8471 4.28242 12.2416C3.92391 12.3407 3.54506 12.3958 3.15458 12.3958C2.87741 12.3958 2.60722 12.3641 2.34574 12.3167C2.89194 14.0178 4.4765 15.2612 6.35391 15.2981C4.88499 16.4471 3.03488 17.1353 1.02324 17.1353C0.675768 17.1353 0.335847 17.1153 -7.62939e-06 17.0743C1.90065 18.2883 4.1575 19 6.57995 19C14.4737 19 18.7921 12.4603 18.7921 6.78697C18.7921 6.60114 18.7863 6.4159 18.7776 6.233C19.6202 5.63272 20.3465 4.87534 20.92 4.0101Z" />
</g>
<defs>
<clipPath id="clip0">
<rect width="20" height="20" />
</clipPath>
</defs>
</svg>
