<svg width="20" height="20" viewBox="0 0 20 20" fill="currentColor" xmlns="http://www.w3.org/2000/svg">
<path d="M9.99515 10C9.10513 10 8.23511 9.73608 7.49508 9.24162C6.75506 8.74715 6.17829 8.04435 5.83769 7.22208C5.4971 6.39981 5.40798 5.49501 5.58162 4.6221C5.75525 3.74918 6.18383 2.94736 6.81317 2.31802C7.44251 1.68869 8.24433 1.2601 9.11724 1.08647C9.99016 0.912835 10.895 1.00195 11.7172 1.34254C12.5395 1.68314 13.2423 2.25992 13.7368 2.99994C14.2312 3.73996 14.4952 4.60999 14.4952 5.5C14.4938 6.69305 14.0192 7.83683 13.1756 8.68044C12.332 9.52405 11.1882 9.9986 9.99515 10ZM9.99515 2.8C9.46114 2.8 8.93912 2.95835 8.49511 3.25503C8.0511 3.55171 7.70503 3.9734 7.50068 4.46676C7.29632 4.96012 7.24285 5.503 7.34703 6.02675C7.45121 6.5505 7.70836 7.03159 8.08596 7.40919C8.46356 7.78679 8.94466 8.04394 9.46841 8.14812C9.99216 8.2523 10.535 8.19884 11.0284 7.99448C11.5218 7.79012 11.9434 7.44406 12.2401 7.00004C12.5368 6.55603 12.6952 6.03401 12.6952 5.5C12.6944 4.78416 12.4097 4.09786 11.9035 3.59168C11.3973 3.0855 10.711 2.80078 9.99515 2.8Z" />
<path d="M17.5485 19H2.45147C2.19438 18.9994 1.94202 18.9307 1.72011 18.8009C1.4982 18.6711 1.31467 18.4848 1.18819 18.2609C1.06172 18.0371 0.996823 17.7837 1.00012 17.5267C1.00342 17.2696 1.07479 17.018 1.20696 16.7975C2.11423 15.2741 3.40169 14.0126 4.94317 13.1366C6.48466 12.2605 8.22729 11.8 10.0003 11.8C11.7734 11.8 13.516 12.2607 15.0574 13.1368C16.5989 14.013 17.8862 15.2745 18.7934 16.7979C18.9255 17.0185 18.9967 17.27 18.9999 17.5271C19.0031 17.7841 18.9381 18.0374 18.8116 18.2612C18.6851 18.4849 18.5016 18.6712 18.2797 18.801C18.0578 18.9307 17.8055 18.9994 17.5485 19ZM3.0878 17.2H16.9121C16.1344 16.0883 15.1 15.1806 13.8967 14.5539C12.6934 13.9272 11.3567 13.6 9.99996 13.6C8.64324 13.6 7.30653 13.9272 6.10323 14.5539C4.89993 15.1806 3.86554 16.0883 3.0878 17.2V17.2Z" />
</svg>
