<svg width="20" height="20" viewBox="0 0 20 20" fill="currentColor" xmlns="http://www.w3.org/2000/svg">
<path d="M9.99134 10C12.4766 10 14.4914 7.9853 14.4914 5.50001C14.4914 3.01472 12.4766 1 9.99134 1C7.50606 1 5.49133 3.01472 5.49133 5.50001C5.49133 7.9853 7.50606 10 9.99134 10Z" />
<path d="M18.7934 16.795C17.8857 15.2723 16.5981 14.0115 15.0567 13.1359C13.5154 12.2603 11.7731 11.8 10.0004 11.8C8.22768 11.8 6.48537 12.2603 4.94401 13.1359C3.40265 14.0115 2.11508 15.2723 1.20735 16.795C1.07513 17.0155 1.00364 17.267 1.00014 17.5241C0.996635 17.7811 1.06125 18.0345 1.18742 18.2585C1.31358 18.4825 1.4968 18.6691 1.71845 18.7993C1.9401 18.9296 2.19227 18.9988 2.44935 19H17.5514C17.8085 18.9988 18.0606 18.9296 18.2823 18.7993C18.5039 18.6691 18.6871 18.4825 18.8133 18.2585C18.9395 18.0345 19.0041 17.7811 19.0006 17.5241C18.9971 17.267 18.9256 17.0155 18.7934 16.795V16.795Z" />
</svg>
