<svg width="20" height="20" viewBox="0 0 20 20" fill="currentColor" xmlns="http://www.w3.org/2000/svg">
<path d="M10.0457 12.9879C10.3161 12.9879 10.5754 12.8805 10.7666 12.6893C10.9578 12.4981 11.0652 12.2388 11.0652 11.9684V7.24717C11.0652 6.97678 10.9578 6.71746 10.7666 6.52626C10.5754 6.33506 10.3161 6.22765 10.0457 6.22765C9.77528 6.22765 9.51596 6.33506 9.32476 6.52626C9.13357 6.71746 9.02615 6.97678 9.02615 7.24717V11.9527C9.02407 12.0879 9.04891 12.2221 9.09921 12.3477C9.14951 12.4732 9.22428 12.5874 9.31916 12.6838C9.41404 12.7801 9.52714 12.8566 9.65187 12.9088C9.77659 12.961 9.91046 12.9879 10.0457 12.9879V12.9879Z" />
<path d="M10.0065 16.4779C10.6562 16.4779 11.1829 15.9512 11.1829 15.3015C11.1829 14.6518 10.6562 14.1251 10.0065 14.1251C9.35679 14.1251 8.83011 14.6518 8.83011 15.3015C8.83011 15.9512 9.35679 16.4779 10.0065 16.4779Z" />
<path d="M19.7155 16.2975L12.0769 2.22802C11.8747 1.85645 11.576 1.54629 11.2123 1.33017C10.8487 1.11406 10.4334 1 10.0104 1C9.58736 1 9.17215 1.11406 8.80848 1.33017C8.44481 1.54629 8.14613 1.85645 7.9439 2.22802L0.297444 16.2975C0.097307 16.6567 -0.00517917 17.0621 0.000201457 17.4733C0.00558209 17.8845 0.118641 18.2871 0.32811 18.641C0.537579 18.9949 0.83614 19.2877 1.19403 19.4902C1.55193 19.6927 1.95665 19.7979 2.36787 19.7953H17.6451C18.0529 19.7956 18.4539 19.69 18.8086 19.4887C19.1633 19.2874 19.4595 18.9973 19.6683 18.6469C19.8771 18.2966 19.9912 17.898 19.9995 17.4902C20.0078 17.0825 19.9099 16.6796 19.7155 16.321V16.2975ZM18.3195 17.8189C18.2501 17.936 18.1515 18.033 18.0332 18.1004C17.9149 18.1678 17.7812 18.2032 17.6451 18.2032H2.36787C2.23155 18.2036 2.09748 18.1684 1.9789 18.1012C1.86031 18.034 1.7613 17.937 1.69163 17.8198C1.62196 17.7026 1.58404 17.5693 1.5816 17.433C1.57916 17.2967 1.61229 17.1621 1.67773 17.0425L9.31634 2.97306C9.38354 2.84856 9.48316 2.74456 9.60466 2.67207C9.72616 2.59958 9.865 2.56131 10.0065 2.56131C10.148 2.56131 10.2868 2.59958 10.4083 2.67207C10.5298 2.74456 10.6294 2.84856 10.6966 2.97306L18.3352 17.0425C18.4002 17.1622 18.433 17.2967 18.4302 17.4328C18.4275 17.569 18.3893 17.702 18.3195 17.8189Z" />
</svg>
