<svg width="20" height="20" viewBox="0 0 20 20" fill="currentColor" xmlns="http://www.w3.org/2000/svg">
<path d="M19.7155 16.2975L12.0769 2.22802C11.8747 1.85645 11.576 1.54629 11.2123 1.33017C10.8487 1.11406 10.4334 1 10.0104 1C9.58736 1 9.17215 1.11406 8.80848 1.33017C8.44481 1.54629 8.14613 1.85645 7.9439 2.22802L0.297444 16.2975C0.097307 16.6567 -0.00517917 17.0621 0.000201457 17.4733C0.00558209 17.8845 0.118641 18.2871 0.32811 18.641C0.537579 18.9949 0.83614 19.2877 1.19403 19.4902C1.55193 19.6927 1.95665 19.7979 2.36787 19.7953H17.6451C18.0529 19.7956 18.4539 19.69 18.8086 19.4887C19.1633 19.2874 19.4595 18.9973 19.6683 18.6469C19.8771 18.2966 19.9912 17.898 19.9995 17.4902C20.0078 17.0825 19.9099 16.6796 19.7155 16.321V16.2975ZM8.83794 6.25908C8.83794 5.94708 8.96188 5.64787 9.1825 5.42725C9.40311 5.20664 9.70233 5.0827 10.0143 5.0827C10.3263 5.0827 10.6255 5.20664 10.8461 5.42725C11.0668 5.64787 11.1907 5.94708 11.1907 6.25908V11.6626C11.1907 11.9746 11.0668 12.2738 10.8461 12.4944C10.6255 12.715 10.3263 12.8389 10.0143 12.8389C9.70233 12.8389 9.40311 12.715 9.1825 12.4944C8.96188 12.2738 8.83794 11.9746 8.83794 11.6626V6.25908ZM10.0457 16.8543C9.7789 16.8543 9.5181 16.7752 9.29628 16.627C9.07445 16.4788 8.90155 16.2681 8.79946 16.0216C8.69736 15.7751 8.67065 15.5039 8.7227 15.2422C8.77475 14.9806 8.90322 14.7402 9.09187 14.5516C9.28052 14.3629 9.52087 14.2345 9.78253 14.1824C10.0442 14.1304 10.3154 14.1571 10.5619 14.2592C10.8084 14.3613 11.0191 14.5342 11.1673 14.756C11.3155 14.9778 11.3946 15.2386 11.3946 15.5054C11.3946 15.8632 11.2525 16.2063 10.9995 16.4592C10.7465 16.7122 10.4034 16.8543 10.0457 16.8543Z" />
</svg>
