<svg width="20" height="20" viewBox="0 0 20 20" fill="currentColor" xmlns="http://www.w3.org/2000/svg">
<path fill-rule="evenodd" clip-rule="evenodd" d="M10.0031 1C12.4075 1.00057 14.6664 1.93755 16.3658 3.63815C18.0653 5.33875 19 7.59937 18.9994 10.0031C18.9977 14.9641 14.9607 19 10.0003 19H9.99687C8.38181 18.9994 6.79755 18.566 5.41631 17.7459L5.08726 17.5509L1.68092 18.444L2.59053 15.1243L2.37611 14.7839C1.47505 13.3507 0.999431 11.6958 1 9.99572C1.00228 5.03536 5.03935 1 10.0031 1ZM6.68453 5.00276C6.87785 5.01074 7.09114 5.01987 7.29359 5.4704C7.43504 5.78481 7.675 6.37662 7.86235 6.83868C7.99376 7.16275 8.09928 7.423 8.12678 7.47895C8.19465 7.61411 8.2397 7.77208 8.14959 7.95286C8.136 7.98005 8.12343 8.0057 8.11143 8.03021C8.04385 8.16816 7.99405 8.26982 7.87928 8.40396C7.83299 8.45783 7.78519 8.51594 7.73746 8.57395C7.64522 8.68607 7.55328 8.79782 7.47323 8.87787C7.33751 9.01303 7.19664 9.15959 7.35461 9.42991C7.51258 9.70079 8.0555 10.5865 8.8596 11.3033C9.72328 12.0731 10.4736 12.3989 10.8548 12.5644C10.9299 12.597 10.9907 12.6234 11.0353 12.6458C11.3056 12.7815 11.4635 12.7587 11.6215 12.5779C11.7795 12.3977 12.2979 11.788 12.4781 11.5177C12.6589 11.2468 12.8391 11.2919 13.0871 11.382C13.3352 11.4721 14.6657 12.1262 14.936 12.262C14.9898 12.289 15.04 12.3133 15.0865 12.3358C15.2736 12.4263 15.4001 12.4874 15.4544 12.5779C15.5217 12.6908 15.5217 13.232 15.2964 13.8639C15.0712 14.4958 13.9665 15.1048 13.4704 15.1499C13.4227 15.1542 13.3753 15.1598 13.3265 15.1655C12.8679 15.2194 12.2892 15.2874 10.2237 14.473C7.68219 13.4705 6.00627 10.9866 5.66017 10.4737C5.6318 10.4316 5.61236 10.4028 5.60212 10.3891L5.60028 10.3867C5.45843 10.1976 4.49747 8.91648 4.49747 7.5913C4.49747 6.34593 5.10952 5.69315 5.39151 5.3924C5.41091 5.3717 5.42875 5.35268 5.44472 5.33524C5.69279 5.06435 5.98592 4.99649 6.16613 4.99649C6.17901 4.99649 6.19188 4.99648 6.20475 4.99648C6.37198 4.99644 6.53784 4.9964 6.68453 5.00276Z" />
</svg>
