<svg width="20" height="20" viewBox="0 0 20 20" fill="currentColor" xmlns="http://www.w3.org/2000/svg">
<path d="M16.3254 3.61392C14.6344 1.92931 12.385 1.00096 9.99094 1C7.60223 1 5.34921 1.92752 3.64716 3.61172C1.94208 5.29881 1.0022 7.54085 1 9.91664V9.91939V9.92104C1.00027 11.359 1.37807 12.8096 2.0952 14.1337L1.02458 19L5.94687 17.8804C7.19354 18.5086 8.58455 18.8399 9.9875 18.8404H9.99107C12.3794 18.8404 14.6324 17.9128 16.3347 16.2284C18.0413 14.54 18.9816 12.3008 18.9827 9.92351C18.9834 7.56296 18.0398 5.32216 16.3254 3.61392V3.61392ZM9.99094 17.4355H9.98778C8.72806 17.435 7.47987 17.1187 6.37836 16.5207L6.14558 16.3943L2.87248 17.1388L3.58344 13.9077L3.44638 13.6714C2.76495 12.4962 2.40488 11.199 2.40488 9.91953C2.40749 5.77809 5.81023 2.40488 9.99066 2.40488C12.0102 2.4057 13.9078 3.18861 15.3339 4.60915C16.7814 6.05165 17.5784 7.93883 17.5777 9.9231C17.576 14.0655 14.1726 17.4355 9.99094 17.4355V17.4355Z" />
<path d="M7.16237 6.625H6.76823C6.63104 6.625 6.40829 6.67636 6.21988 6.88139C6.03133 7.08656 5.5 7.58246 5.5 8.591C5.5 9.59955 6.23705 10.574 6.33977 10.711C6.44263 10.8477 7.7625 12.9835 9.85292 13.8051C11.5903 14.4879 11.9439 14.3521 12.3209 14.3179C12.698 14.2838 13.5377 13.8221 13.7091 13.3436C13.8805 12.865 13.8805 12.4546 13.8291 12.3689C13.7776 12.2835 13.6405 12.2323 13.4349 12.1298C13.2292 12.0273 12.2212 11.523 12.0326 11.4545C11.8441 11.3862 11.707 11.352 11.5698 11.5573C11.4326 11.7622 11.0287 12.2363 10.9087 12.373C10.7888 12.51 10.6688 12.5271 10.4631 12.4245C10.2574 12.3217 9.60175 12.1014 8.81609 11.4032C8.20456 10.8598 7.78021 10.1669 7.66019 9.96169C7.5403 9.75665 7.64742 9.64569 7.75055 9.54338C7.84297 9.45164 7.9678 9.32613 8.07066 9.20651C8.17339 9.08676 8.20264 9.00134 8.2713 8.86456C8.33983 8.72778 8.3055 8.60803 8.25414 8.50558C8.20264 8.403 7.80795 7.38937 7.62503 6.98398H7.62517C7.47108 6.64258 7.3089 6.63104 7.16237 6.625V6.625Z" />
</svg>
