<svg width="20" height="20" viewBox="0 0 20 20" fill="currentColor" xmlns="http://www.w3.org/2000/svg">
<path d="M19.9938 10.1875C19.9938 10.1384 19.9938 10.0826 19.9916 10.0179C19.9894 9.83718 19.9849 9.63412 19.9805 9.41767C19.9626 8.79509 19.9314 8.17475 19.8823 7.5901C19.8153 6.78455 19.7171 6.11288 19.5833 5.60857C19.442 5.08228 19.165 4.60229 18.7801 4.21658C18.3952 3.83087 17.9157 3.55295 17.3897 3.41059C16.7582 3.241 15.522 3.13612 13.7815 3.07141C12.9536 3.04017 12.0677 3.02008 11.1818 3.00893C10.8717 3.00446 10.5838 3.00223 10.3249 3H9.6689C9.41005 3.00223 9.12219 3.00446 8.81202 3.00893C7.92613 3.02008 7.04024 3.04017 6.21237 3.07141C4.47184 3.13835 3.23338 3.24323 2.60411 3.41059C2.07793 3.5526 1.59832 3.8304 1.21334 4.21617C0.828359 4.60193 0.551527 5.08211 0.410588 5.60857C0.274469 6.11288 0.178516 6.78455 0.111573 7.5901C0.0624808 8.17475 0.0312403 8.79509 0.0133887 9.41767C0.00669433 9.63412 0.00446288 9.83718 0.00223142 10.0179C0.00223142 10.0826 0 10.1384 0 10.1875V10.3125C0 10.3616 -3.40826e-08 10.4174 0.00223142 10.4821C0.00446288 10.6628 0.00892579 10.8659 0.0133887 11.0823C0.0312403 11.7049 0.0624808 12.3253 0.111573 12.9099C0.178516 13.7154 0.276701 14.3871 0.410588 14.8914C0.696214 15.9603 1.53524 16.8038 2.60411 17.0894C3.23338 17.259 4.47184 17.3639 6.21237 17.4286C7.04024 17.4598 7.92613 17.4799 8.81202 17.4911C9.12219 17.4955 9.41005 17.4978 9.6689 17.5H10.3249C10.5838 17.4978 10.8717 17.4955 11.1818 17.4911C12.0677 17.4799 12.9536 17.4598 13.7815 17.4286C15.522 17.3616 16.7605 17.2568 17.3897 17.0894C18.4586 16.8038 19.2976 15.9625 19.5833 14.8914C19.7194 14.3871 19.8153 13.7154 19.8823 12.9099C19.9314 12.3253 19.9626 11.7049 19.9805 11.0823C19.9871 10.8659 19.9894 10.6628 19.9916 10.4821C19.9916 10.4174 19.9938 10.3616 19.9938 10.3125V10.1875V10.1875ZM18.3872 10.3036C18.3872 10.3504 18.3872 10.4017 18.385 10.462C18.3827 10.636 18.3783 10.8279 18.3738 11.0355C18.3582 11.629 18.3269 12.2226 18.2801 12.7738C18.2198 13.4923 18.135 14.0814 18.0302 14.4764C17.8918 14.9918 17.4857 15.4002 16.9725 15.5363C16.5038 15.6613 15.3234 15.7617 13.719 15.8219C12.9067 15.8532 12.032 15.8733 11.1595 15.8844C10.8538 15.8889 10.5704 15.8911 10.316 15.8911H9.67782L8.83433 15.8844C7.96183 15.8733 7.08934 15.8532 6.27485 15.8219C4.67044 15.7595 3.48777 15.6613 3.02139 15.5363C2.50816 15.398 2.10203 14.9918 1.96368 14.4764C1.8588 14.0814 1.77401 13.4923 1.71376 12.7738C1.6669 12.2226 1.63789 11.629 1.62004 11.0355C1.61334 10.8279 1.61111 10.6338 1.60888 10.462C1.60888 10.4017 1.60665 10.3482 1.60665 10.3036V10.1964C1.60665 10.1496 1.60665 10.0983 1.60888 10.038C1.61111 9.86396 1.61557 9.67205 1.62004 9.46453C1.63566 8.87096 1.6669 8.27739 1.71376 7.72622C1.77401 7.00769 1.8588 6.41859 1.96368 6.02362C2.10203 5.50816 2.50816 5.0998 3.02139 4.96368C3.49 4.83872 4.67044 4.7383 6.27485 4.67805C7.0871 4.64681 7.96183 4.62673 8.83433 4.61557C9.14004 4.61111 9.42344 4.60888 9.67782 4.60888H10.316L11.1595 4.61557C12.032 4.62673 12.9045 4.64681 13.719 4.67805C15.3234 4.74053 16.5061 4.83872 16.9725 4.96368C17.4857 5.10203 17.8918 5.50816 18.0302 6.02362C18.135 6.41859 18.2198 7.00769 18.2801 7.72622C18.3269 8.27739 18.356 8.87096 18.3738 9.46453C18.3805 9.67205 18.3827 9.86619 18.385 10.038C18.385 10.0983 18.3872 10.1518 18.3872 10.1964V10.3036ZM8.01093 13.2401L13.1879 10.2277L8.01093 7.25985V13.2401Z" />
</svg>
