<svg width="20" height="20" viewBox="0 0 20 20" fill="currentColor" xmlns="http://www.w3.org/2000/svg">
<path fill-rule="evenodd" clip-rule="evenodd" d="M7.89777 12.5828V6.98919L13.2754 9.79596L7.89777 12.5828V12.5828ZM19.7071 6.02076C19.7071 6.02076 19.513 4.64823 18.9158 4.04408C18.1594 3.25181 17.3104 3.24783 16.9212 3.20105C14.1364 3 9.95706 3 9.95706 3H9.9491C9.9491 3 5.77079 3 2.98493 3.20105C2.59576 3.24783 1.74776 3.25082 0.990331 4.04408C0.393146 4.64823 0.199062 6.02076 0.199062 6.02076C0.199062 6.02076 0 7.63117 0 9.24257V10.7525C0 12.3629 0.199062 13.9743 0.199062 13.9743C0.199062 13.9743 0.393146 15.3458 0.990331 15.95C1.74677 16.7432 2.74207 16.7173 3.18498 16.8009C4.77748 16.9532 9.95308 17 9.95308 17C9.95308 17 14.1364 16.994 16.9212 16.793C17.3104 16.7462 18.1594 16.7432 18.9158 15.95C19.513 15.3458 19.7071 13.9743 19.7071 13.9743C19.7071 13.9743 19.9062 12.3629 19.9062 10.7525V9.24257C19.9062 7.63117 19.7071 6.02076 19.7071 6.02076V6.02076Z" />
</svg>
